<?xml version="1.0" encoding="UTF-8" standalone="no"?>
<!-- Created with Inkscape (http://www.inkscape.org/) -->

<svg
   xmlns:dc="http://purl.org/dc/elements/1.1/"
   xmlns:cc="http://creativecommons.org/ns#"
   xmlns:rdf="http://www.w3.org/1999/02/22-rdf-syntax-ns#"
   xmlns:svg="http://www.w3.org/2000/svg"
   xmlns="http://www.w3.org/2000/svg"
   xmlns:sodipodi="http://sodipodi.sourceforge.net/DTD/sodipodi-0.dtd"
   xmlns:inkscape="http://www.inkscape.org/namespaces/inkscape"
   width="728px"
   height="90px"
   id="svg2987"
   version="1.1"
   inkscape:version="0.48.3 r9882"
   sodipodi:docname="crags.svg">
  <defs
     id="defs2989" />
  <sodipodi:namedview
     id="base"
     pagecolor="#ffffff"
     bordercolor="#666666"
     borderopacity="1.0"
     inkscape:pageopacity="0.0"
     inkscape:pageshadow="2"
     inkscape:zoom="1.0606602"
     inkscape:cx="333.14807"
     inkscape:cy="27.134927"
     inkscape:document-units="px"
     inkscape:current-layer="layer1"
     showgrid="true"
     inkscape:window-width="1364"
     inkscape:window-height="751"
     inkscape:window-x="0"
     inkscape:window-y="15"
     inkscape:window-maximized="0">
    <inkscape:grid
       type="xygrid"
       id="grid2995" />
  </sodipodi:namedview>
  <metadata
     id="metadata2992">
    <rdf:RDF>
      <cc:Work
         rdf:about="">
        <dc:format>image/svg+xml</dc:format>
        <dc:type
           rdf:resource="http://purl.org/dc/dcmitype/StillImage" />
        <dc:title></dc:title>
      </cc:Work>
    </rdf:RDF>
  </metadata>
  <g
     id="layer1"
     inkscape:label="Layer 1"
     inkscape:groupmode="layer">
    <rect
       style="fill:#d3d7cf;fill-opacity:1;stroke:none"
       id="rect2997"
       width="728"
       height="90"
       x="0"
       y="0" />
    <path
       style="fill:#eeeeec;stroke:none"
       d="m 300,6 16,0 16,8 8,16 0,16 -8,16 -16,8 -16,0 -16,-8 -8,-16 0,-16 8,-16 z"
       id="path3823"
       inkscape:connector-curvature="0"
       sodipodi:nodetypes="ccccccccccccc" />
    <path
       style="fill:#babdb6;stroke:none"
       d="m 0,50 12,0 24,-12 -11,13 211,-5 16,-12 -6,10 82,-2 16,-16 -8,16 24,0 -8,-16 24,16 160,-8 -32,-32 72,40 72,0 -8,-16 24,16 64,0 -0.66666,46 L 0,90 z"
       id="path3821"
       inkscape:connector-curvature="0"
       sodipodi:nodetypes="ccccccccccccccccccccccc" />
    <path
       style="fill:#888a85;stroke:none"
       d="m 0,58 112,0 80,-32 -32,32 128,0 40,-32 -16,32 80,-8 -24,-32 40,24 168,8 -24,-32 48,30 96,2.5 -24,-32 48,31.5 8,0 0,38.666667 L 0,90 z"
       id="path3819"
       inkscape:connector-curvature="0"
       sodipodi:nodetypes="cccccccccccccccccccc" />
    <path
       style="fill:#555753;stroke:none"
       d="m 205,74 64,-40 -2,3 23,-16 2,0 -41,34 54,-39 2,0 -22,18 29,-21 -1,3 -40,32 26,-18 4,0 -18,14 11,-7 1,3 -36,32 32,0 32,-4 24,4 94.75,-1.5 L 400,18 504,58 616,66 560,2 672,64 728,66 728,90 0,90 0,84 0,78 0,72 0,66 51.25,68 164,18 l -36,40 16,8 z"
       id="path3815"
       inkscape:connector-curvature="0"
       sodipodi:nodetypes="ccccccccccccccccccccccccccccccccccccccc" />
    <path
       style="fill:#2e3436;stroke:none"
       d="m 132,74 44,-24 72,-40 2,0 -43,28 37,-20 1,1 -18,12 -9,7 17,-10 -37,31 83,-57 1,0 -56,43 18,-11 3,0 -29,24 -22,20 16,-8 8,4 4,8 272,-8 -56,-64 112,64 44,1 92,-9 -16,-32 56,44 0,12 L 0,90 0,78 z"
       id="path3813"
       inkscape:connector-curvature="0"
       sodipodi:nodetypes="cccccccccccccccccccccccccccccccc" />
  </g>
</svg>
