<?xml version="1.0" encoding="UTF-8" standalone="no"?>
<!-- Created with Inkscape (http://www.inkscape.org/) -->

<svg
   xmlns:dc="http://purl.org/dc/elements/1.1/"
   xmlns:cc="http://creativecommons.org/ns#"
   xmlns:rdf="http://www.w3.org/1999/02/22-rdf-syntax-ns#"
   xmlns:svg="http://www.w3.org/2000/svg"
   xmlns="http://www.w3.org/2000/svg"
   xmlns:sodipodi="http://sodipodi.sourceforge.net/DTD/sodipodi-0.dtd"
   xmlns:inkscape="http://www.inkscape.org/namespaces/inkscape"
   width="728px"
   height="90px"
   id="svg2987"
   version="1.1"
   inkscape:version="0.48.3 r9882"
   sodipodi:docname="mars-cities.svg">
  <defs
     id="defs2989" />
  <sodipodi:namedview
     id="base"
     pagecolor="#ffffff"
     bordercolor="#666666"
     borderopacity="1.0"
     inkscape:pageopacity="0.0"
     inkscape:pageshadow="2"
     inkscape:zoom="3"
     inkscape:cx="244.96604"
     inkscape:cy="91.250743"
     inkscape:document-units="px"
     inkscape:current-layer="layer1"
     showgrid="true"
     inkscape:window-width="1364"
     inkscape:window-height="751"
     inkscape:window-x="0"
     inkscape:window-y="15"
     inkscape:window-maximized="0">
    <inkscape:grid
       type="xygrid"
       id="grid2995" />
  </sodipodi:namedview>
  <metadata
     id="metadata2992">
    <rdf:RDF>
      <cc:Work
         rdf:about="">
        <dc:format>image/svg+xml</dc:format>
        <dc:type
           rdf:resource="http://purl.org/dc/dcmitype/StillImage" />
        <dc:title />
      </cc:Work>
    </rdf:RDF>
  </metadata>
  <g
     id="layer1"
     inkscape:label="Layer 1"
     inkscape:groupmode="layer">
    <rect
       style="fill:#fcaf3e;fill-opacity:1;stroke:none"
       id="rect2997"
       width="728"
       height="90"
       x="0"
       y="0" />
    <path
       style="fill:#fce94f;stroke:none"
       d="m 376,0 0,16 8,16 16,8 16,0 -16,8 -16,0 -16,-8 -8,-16 0,-16 4,-8 z"
       id="path3868-6"
       inkscape:connector-curvature="0"
       sodipodi:nodetypes="cccccccccccc" />
    <path
       style="fill:#c17d11;stroke:none"
       d="m 0,90 0,-24 20,4 68,-8 4,4 16,-4 56,8 16,-8 12,0 20,-4 32,8 48,4 4,8 8,-4 36,-4 12,-8 44,4 36,8 44,-8 12,4 28,-8 12,0 60,4 16,0 40,4 8,-4 24,4 4,-12 20,4 28,0 0,28 z"
       id="path3771"
       inkscape:connector-curvature="0" />
    <path
       style="fill:#ce5c00;stroke:none"
       d="m 72,62 4,-16 8,-4 4,-8 4,0 4,8 8,4 4,16 -8,4 -20,0 z"
       id="path3769"
       inkscape:connector-curvature="0"
       sodipodi:nodetypes="ccccccccccc" />
    <path
       style="fill:#8f5902;stroke:none"
       d="m 24,90 8,-24 40,-8 8,8 32,-8 96,16 8,-8 72,8 40,-8 48,8 16,8 24,0 88,8 z"
       id="path2999"
       inkscape:connector-curvature="0"
       sodipodi:nodetypes="cccccccccccccc" />
    <path
       style="fill:#f57900;stroke:none"
       d="m 182,62 1,-4 2,-1 1,-2 1,0 1,2 2,1 1,4 -2,1 -5,0 z"
       id="path3773"
       inkscape:connector-curvature="0" />
    <path
       style="fill:#f57900;stroke:none"
       d="m 204,-58 8,0 8,4 4,8 0,8 -4,8 -8,4 -8,0 -8,-4 -4,-8 0,-8 4,-8 z"
       id="path3868-0"
       inkscape:connector-curvature="0"
       sodipodi:nodetypes="ccccccccccccc" />
    <path
       style="fill:#fce94f;stroke:none"
       d="m 140,6 -4,8 0,8 4,8 8,4 8,0 -8,4 -8,0 -8,-4 -4,-8 0,-8 4,-8 z"
       id="path3868"
       inkscape:connector-curvature="0"
       sodipodi:nodetypes="ccccccccccccc" />
    <path
       style="fill:#edd400;stroke:none"
       d="m 280,-58 8,0 8,4 4,8 0,8 -4,8 -8,4 -8,0 -8,-4 -4,-8 0,-8 4,-8 z"
       id="path3868-0-2"
       inkscape:connector-curvature="0"
       sodipodi:nodetypes="ccccccccccccc" />
    <path
       style="fill:#fce94f;stroke:none"
       d="m 284,-50 -32,4 -4,4 4,4 32,4 32,-4 4,-4 -4,-4 z m 0,6 24,2 -24,2 -24,-2 z"
       id="path4432"
       inkscape:connector-curvature="0"
       sodipodi:nodetypes="cccccccccccccc" />
    <path
       style="fill:#edd400;stroke:none"
       d="m 280,-58 8,0 8,4 4,8 0,4 -32,0 0,-4 4,-8 z"
       id="path3868-0-2-6"
       inkscape:connector-curvature="0"
       sodipodi:nodetypes="ccccccccc" />
  </g>
</svg>
