<?xml version="1.0" encoding="UTF-8" standalone="no"?>
<!-- Created with Inkscape (http://www.inkscape.org/) -->

<svg
   xmlns:dc="http://purl.org/dc/elements/1.1/"
   xmlns:cc="http://creativecommons.org/ns#"
   xmlns:rdf="http://www.w3.org/1999/02/22-rdf-syntax-ns#"
   xmlns:svg="http://www.w3.org/2000/svg"
   xmlns="http://www.w3.org/2000/svg"
   xmlns:sodipodi="http://sodipodi.sourceforge.net/DTD/sodipodi-0.dtd"
   xmlns:inkscape="http://www.inkscape.org/namespaces/inkscape"
   width="64px"
   height="64px"
   id="svg3904"
   version="1.1"
   inkscape:version="0.48.3 r9882"
   sodipodi:docname="landsquid.svg">
  <defs
     id="defs3906" />
  <sodipodi:namedview
     id="base"
     pagecolor="#ffffff"
     bordercolor="#666666"
     borderopacity="1.0"
     inkscape:pageopacity="0.0"
     inkscape:pageshadow="2"
     inkscape:zoom="7.7781746"
     inkscape:cx="33.281915"
     inkscape:cy="27.446259"
     inkscape:current-layer="layer1"
     showgrid="true"
     inkscape:document-units="px"
     inkscape:grid-bbox="true"
     inkscape:window-width="1364"
     inkscape:window-height="751"
     inkscape:window-x="0"
     inkscape:window-y="15"
     inkscape:window-maximized="0">
    <inkscape:grid
       type="xygrid"
       id="grid3912"
       empspacing="4"
       visible="true"
       enabled="true"
       snapvisiblegridlinesonly="true" />
  </sodipodi:namedview>
  <metadata
     id="metadata3909">
    <rdf:RDF>
      <cc:Work
         rdf:about="">
        <dc:format>image/svg+xml</dc:format>
        <dc:type
           rdf:resource="http://purl.org/dc/dcmitype/StillImage" />
        <dc:title></dc:title>
      </cc:Work>
    </rdf:RDF>
  </metadata>
  <g
     id="layer1"
     inkscape:label="Layer 1"
     inkscape:groupmode="layer">
    <path
       style="fill:#555753;fill-opacity:1;stroke:none"
       d="m 40,50 3,1 6,-1 4,-5 1,-9 2,6 -1,6 -5,6 -7,3 -5,-1 0.5,2 9.5,2 5,-1 -4,5 -12,0 -4,-2 -1,-2 -1,2 -4,2 -12,0 -4,-5 5,1 8,-2 1,-2 -4,1 -7,-3 -5,-6 -1,-6 2,-6 1,9 4,5 6,1 3,-1 4,-20 4,-2 4,2 z"
       id="path3914"
       inkscape:connector-curvature="0"
       sodipodi:nodetypes="ccccccccccccccccccccccccccccccccccccc" />
    <path
       style="fill:#888a85;fill-opacity:1;stroke:none"
       d="m 27,20 -5,14 1,2 3,-1 -1,5 -3,1 -4,-3 -2,-6 0,7 3,5 6,1 4,-3 1,-7 4,0 1,7 4,3 6,-1 3,-5 0,-7 -2,6 -4,3 -3,-1 -1,-5 3,1 1,-2 -5,-14 z"
       id="path4442"
       inkscape:connector-curvature="0"
       sodipodi:nodetypes="ccccccccccccccccccccccccccc" />
    <path
       style="fill:#d3d7cf;fill-opacity:1;stroke:none"
       d="m 20,26 2,2 10,-1 10,1 2,-2 -1,-4 1,-3 3,-2 1,-8 -4,-3 -12,-1 -12,1 -4,3 1,8 3,2 1,3 z"
       id="path4501"
       inkscape:connector-curvature="0"
       sodipodi:nodetypes="ccccccccccccccccc" />
    <path
       style="fill:#555753;fill-opacity:1;stroke:none"
       d="m 39,20 -1,-1 2,-3 0,-4 3,0 1,1 -2,3 0,4 z"
       id="path4503"
       inkscape:connector-curvature="0"
       sodipodi:nodetypes="ccccccccc" />
    <path
       style="fill:#555753;fill-opacity:1;stroke:none"
       d="m 25,20 1,-1 -2,-3 0,-4 -3,0 -1,1 2,3 0,4 z"
       id="path4503-6"
       inkscape:connector-curvature="0"
       sodipodi:nodetypes="ccccccccc" />
  </g>
</svg>
