<?xml version="1.0" encoding="UTF-8" standalone="no"?>
<!-- Created with Inkscape (http://www.inkscape.org/) -->

<svg
   xmlns:dc="http://purl.org/dc/elements/1.1/"
   xmlns:cc="http://creativecommons.org/ns#"
   xmlns:rdf="http://www.w3.org/1999/02/22-rdf-syntax-ns#"
   xmlns:svg="http://www.w3.org/2000/svg"
   xmlns="http://www.w3.org/2000/svg"
   xmlns:sodipodi="http://sodipodi.sourceforge.net/DTD/sodipodi-0.dtd"
   xmlns:inkscape="http://www.inkscape.org/namespaces/inkscape"
   width="64px"
   height="64px"
   id="svg2991"
   version="1.1"
   inkscape:version="0.48.3 r9882"
   sodipodi:docname="man.svg">
  <defs
     id="defs2993" />
  <sodipodi:namedview
     id="base"
     pagecolor="#ffffff"
     bordercolor="#666666"
     borderopacity="1.0"
     inkscape:pageopacity="0.0"
     inkscape:pageshadow="2"
     inkscape:zoom="5.4999999"
     inkscape:cx="33.103548"
     inkscape:cy="30.57903"
     inkscape:current-layer="layer1"
     showgrid="true"
     inkscape:document-units="px"
     inkscape:grid-bbox="true"
     inkscape:window-width="817"
     inkscape:window-height="751"
     inkscape:window-x="0"
     inkscape:window-y="15"
     inkscape:window-maximized="0">
    <inkscape:grid
       type="xygrid"
       id="grid2999"
       empspacing="4"
       visible="true"
       enabled="true"
       snapvisiblegridlinesonly="true" />
  </sodipodi:namedview>
  <metadata
     id="metadata2996">
    <rdf:RDF>
      <cc:Work
         rdf:about="">
        <dc:format>image/svg+xml</dc:format>
        <dc:type
           rdf:resource="http://purl.org/dc/dcmitype/StillImage" />
        <dc:title></dc:title>
      </cc:Work>
    </rdf:RDF>
  </metadata>
  <g
     id="layer1"
     inkscape:label="Layer 1"
     inkscape:groupmode="layer">
    <path
       style="fill:#555753;fill-opacity:1;stroke:none"
       d="m 28,6 0,-3 1,-2 3,-1 3,1 1,2 0,3 -2,2 0,-4 -2,0 -2,0 0,4 z"
       id="path3866"
       inkscape:connector-curvature="0"
       sodipodi:nodetypes="ccccccccccccc" />
    <path
       style="fill:#888a85;fill-opacity:1;stroke:none"
       d="m 30,9 4,0 0,2 5,2 -2,4 -10,0 -2,-4 5,-2 z"
       id="path3836"
       inkscape:connector-curvature="0"
       sodipodi:nodetypes="ccccccccc" />
    <path
       style="fill:#888a85;fill-opacity:1;stroke:none"
       d="m 25,13 -1,2 -2,7 0,10 -1,2 1,4 1,0 1,-4 0,-2 1,-9 3,-7 z"
       id="path3838"
       inkscape:connector-curvature="0"
       sodipodi:nodetypes="cccccccccccc" />
    <path
       style="fill:#888a85;fill-opacity:1;stroke:none"
       d="m 39,13 1,2 2,7 0,10 1,2 -1,4 -1,0 -1,-4 0,-2 -1,-9 -3,-7 z"
       id="path3838-0"
       inkscape:connector-curvature="0"
       sodipodi:nodetypes="cccccccccccc" />
    <path
       style="fill:#888a85;fill-opacity:1;stroke:none"
       d="m 27,16 0,4 -1,5 1,4 10,0 1,-4 -1,-5 0,-4 z"
       id="path3860"
       inkscape:connector-curvature="0" />
    <path
       style="fill:#555753;fill-opacity:1;stroke:none"
       d="m 27,29 -1,3 -1,8 1,6 -1,4 1,7 0,3 -1,3 1,1 3,0 1,-1 -1,-4 0,-2 1,-5 0,-4 1,-3 1,-9 -2,-5 z"
       id="path3862"
       inkscape:connector-curvature="0"
       sodipodi:nodetypes="ccccccccccccccccccc" />
    <path
       style="fill:#d3d7cf;fill-opacity:1;stroke:none"
       d="m 32,11 -2,-1 -1,-2 0,-4 1,-2 4,0 1,2 0,4 -1,2 z"
       id="path3864"
       inkscape:connector-curvature="0"
       sodipodi:nodetypes="cccccccccc" />
    <path
       style="fill:#555753;fill-opacity:1;stroke:none"
       d="m 37,29 1,3 1,8 -1,6 1,4 -1,7 0,3 1,3 -1,1 -3,0 -1,-1 1,-4 0,-2 -1,-5 0,-4 -1,-3 -1,-9 2,-5 z"
       id="path3862-6"
       inkscape:connector-curvature="0"
       sodipodi:nodetypes="ccccccccccccccccccc" />
    <path
       style="fill:#555753;fill-opacity:1;stroke:none"
       d="m 27,29 2,6 3,1 3,-1 2,-6 z"
       id="path3905"
       inkscape:connector-curvature="0" />
    <path
       style="fill:#555753;fill-opacity:1;stroke:none"
       d="m 30,5 1,0 0,1 -1,0 z"
       id="path3929"
       inkscape:connector-curvature="0" />
    <path
       style="fill:#555753;fill-opacity:1;stroke:none"
       d="m 33,5 1,0 0,1 -1,0 z"
       id="path3929-6"
       inkscape:connector-curvature="0" />
    <path
       style="fill:#555753;fill-opacity:1;stroke:none"
       d="M 32,8 31,7 30,9 34,9 33,7 z"
       id="path3900"
       inkscape:connector-curvature="0"
       sodipodi:nodetypes="cccccc" />
    <path
       style="fill:#555753;stroke:none;stroke-width:1px;stroke-linecap:butt;stroke-linejoin:miter;stroke-opacity:1;fill-opacity:1"
       d="m 29,6 0,3 1,2 2,1 2,-1 1,-2 0,-3 -1,3 -2,1 -2,-1 z"
       id="path3902"
       inkscape:connector-curvature="0" />
  </g>
</svg>
