<?xml version="1.0" encoding="UTF-8" standalone="no"?>
<!-- Created with Inkscape (http://www.inkscape.org/) -->

<svg
   xmlns:dc="http://purl.org/dc/elements/1.1/"
   xmlns:cc="http://creativecommons.org/ns#"
   xmlns:rdf="http://www.w3.org/1999/02/22-rdf-syntax-ns#"
   xmlns:svg="http://www.w3.org/2000/svg"
   xmlns="http://www.w3.org/2000/svg"
   xmlns:sodipodi="http://sodipodi.sourceforge.net/DTD/sodipodi-0.dtd"
   xmlns:inkscape="http://www.inkscape.org/namespaces/inkscape"
   width="64px"
   height="64px"
   id="svg2991"
   version="1.1"
   inkscape:version="0.48.3 r9882"
   sodipodi:docname="woman.svg">
  <defs
     id="defs2993" />
  <sodipodi:namedview
     id="base"
     pagecolor="#ffffff"
     bordercolor="#666666"
     borderopacity="1.0"
     inkscape:pageopacity="0.0"
     inkscape:pageshadow="2"
     inkscape:zoom="7.7781744"
     inkscape:cx="33.816331"
     inkscape:cy="38.062594"
     inkscape:current-layer="layer1"
     showgrid="true"
     inkscape:document-units="px"
     inkscape:grid-bbox="true"
     inkscape:window-width="545"
     inkscape:window-height="751"
     inkscape:window-x="819"
     inkscape:window-y="15"
     inkscape:window-maximized="0">
    <inkscape:grid
       type="xygrid"
       id="grid2999"
       empspacing="4"
       visible="true"
       enabled="true"
       snapvisiblegridlinesonly="true" />
  </sodipodi:namedview>
  <metadata
     id="metadata2996">
    <rdf:RDF>
      <cc:Work
         rdf:about="">
        <dc:format>image/svg+xml</dc:format>
        <dc:type
           rdf:resource="http://purl.org/dc/dcmitype/StillImage" />
        <dc:title />
      </cc:Work>
    </rdf:RDF>
  </metadata>
  <g
     id="layer1"
     inkscape:label="Layer 1"
     inkscape:groupmode="layer">
    <path
       style="fill:#555753;fill-opacity:1;stroke:none"
       d="m 27,20 1,6 -2,3 -1,7 2,9 -1,7 1,5 0,4 -3,2 1,1 3,0 1,-2 0,-4 1,-6 0,-4 1,-2 0,-10 1,0 0,10 1,2 0,4 1,6 0,4 1,2 2,0 1,-1 -2,-2 0,-4 1,-5 -1,-7 2,-9 -1,-7 -2,-3 1,-6 -4,-1 -1,0 z"
       id="path3776"
       inkscape:connector-curvature="0"
       sodipodi:nodetypes="ccccccccccccccccccccccccccccccccccccc" />
    <path
       style="fill:#555753;fill-opacity:1;stroke:none"
       d="m 32,2 -1,0 -2,1 -1,2 -1,5 -1,7 11,0 -1,-7 -1,-5 -1,-2 z"
       id="path3778"
       inkscape:connector-curvature="0"
       sodipodi:nodetypes="ccccccccccc" />
    <path
       style="fill:#888a85;fill-opacity:1;stroke:none"
       d="m 31,9 -2,3 -3,2 -1,2 1,3 1,2 1,1 2,0 1,-2 1,0 1,2 2,0 1,-1 1,-2 1,-3 -1,-2 -3,-2 -2,-3 z"
       id="path3004"
       inkscape:connector-curvature="0"
       sodipodi:nodetypes="ccccccccccccccccccc" />
    <path
       style="fill:#d3d7cf;fill-opacity:1;stroke:none"
       d="m 32,12 -1,0 -1,-1 -1,-2 0,-3 2,-1 1,0 2,1 0,3 -1,2 z"
       id="path3907"
       inkscape:connector-curvature="0"
       sodipodi:nodetypes="ccccccccccc" />
    <path
       style="fill:#888a85;fill-opacity:1;stroke:none"
       d="m 25,16 -2,9 -2,6 -1,4 0,3 1,0 1,-3 0,-2 4,-9 1,-5 0,-2 z"
       id="path3774"
       inkscape:connector-curvature="0"
       sodipodi:nodetypes="cccccccccccc" />
    <path
       style="fill:#555753;stroke:none;stroke-width:1px;stroke-linecap:butt;stroke-linejoin:miter;stroke-opacity:1;fill-opacity:1"
       d="m 30,7 1,0 0,1 -1,0 z"
       id="path3780"
       inkscape:connector-curvature="0" />
    <path
       style="fill:#555753;fill-opacity:1;stroke:none"
       d="m 32,7 1,0 0,1 -1,0 z"
       id="path3780-0"
       inkscape:connector-curvature="0" />
    <path
       style="fill:#888a85;fill-opacity:1;stroke:none"
       d="m 38,16 2,9 2,6 1,4 0,3 -1,0 -1,-3 0,-2 -4,-9 -1,-5 0,-2 z"
       id="path3774-6"
       inkscape:connector-curvature="0"
       sodipodi:nodetypes="cccccccccccc" />
  </g>
</svg>
