<?xml version="1.0" encoding="UTF-8" standalone="no"?>
<!-- Created with Inkscape (http://www.inkscape.org/) -->

<svg
   xmlns:dc="http://purl.org/dc/elements/1.1/"
   xmlns:cc="http://creativecommons.org/ns#"
   xmlns:rdf="http://www.w3.org/1999/02/22-rdf-syntax-ns#"
   xmlns:svg="http://www.w3.org/2000/svg"
   xmlns="http://www.w3.org/2000/svg"
   xmlns:sodipodi="http://sodipodi.sourceforge.net/DTD/sodipodi-0.dtd"
   xmlns:inkscape="http://www.inkscape.org/namespaces/inkscape"
   width="210mm"
   height="297mm"
   viewBox="0 0 744.09448819 1052.3622047"
   id="svg5281"
   version="1.1"
   inkscape:version="0.91 r13725"
   sodipodi:docname="girl.svg">
  <defs
     id="defs5283">
    <inkscape:perspective
       sodipodi:type="inkscape:persp3d"
       inkscape:vp_x="0 : 526.1811 : 1"
       inkscape:vp_y="0 : 1000 : 0"
       inkscape:vp_z="744.09449 : 526.1811 : 1"
       inkscape:persp3d-origin="372.04724 : 350.7874 : 1"
       id="perspective5949" />
  </defs>
  <sodipodi:namedview
     id="base"
     pagecolor="#ffffff"
     bordercolor="#666666"
     borderopacity="1.0"
     inkscape:pageopacity="0.0"
     inkscape:pageshadow="2"
     inkscape:zoom="0.35138833"
     inkscape:cx="726.19057"
     inkscape:cy="368.04778"
     inkscape:document-units="px"
     inkscape:current-layer="layer1"
     showgrid="false"
     inkscape:window-width="1678"
     inkscape:window-height="1032"
     inkscape:window-x="0"
     inkscape:window-y="16"
     inkscape:window-maximized="1"
     showguides="false" />
  <metadata
     id="metadata5286">
    <rdf:RDF>
      <cc:Work
         rdf:about="">
        <dc:format>image/svg+xml</dc:format>
        <dc:type
           rdf:resource="http://purl.org/dc/dcmitype/StillImage" />
        <dc:title></dc:title>
      </cc:Work>
    </rdf:RDF>
  </metadata>
  <g
     inkscape:label="Layer 1"
     inkscape:groupmode="layer"
     id="layer1">
    <path
       style="fill:#000000;fill-rule:evenodd;stroke:none;stroke-width:1px;stroke-linecap:butt;stroke-linejoin:miter;stroke-opacity:1"
       d="m -84.72232,31.091327 c 34.84931,142.559363 -2.5561,148.560683 -2.5561,148.560683 0,0 31.63198,12.94818 48.29666,-68.77336 12.16972,-59.678823 -20.58468,-123.884643 12.09251,-97.179113 12.09523,9.88486 7.228,-19.2078803 5.55584,-25.25382 -8.01229,-28.96971 -81.82555,-32.77382 -63.38891,42.64561 z"
       id="path5856-7"
       inkscape:connector-curvature="0"
       sodipodi:nodetypes="scssss" />
    <path
       style="fill:#4e9a06;fill-rule:evenodd;stroke:none;stroke-width:1px;stroke-linecap:butt;stroke-linejoin:miter;stroke-opacity:1"
       d="m -7.2711203,-13.903453 c -1.16831,-1.57545 -13.7999997,-11.32678 -20.2913797,3.86056 -6.74368,15.7776997 -8.04019,22.16062 1.52684,28.80545 12.66921,8.79943 23.1818497,-26.7092703 18.7645397,-32.66601 z"
       id="path5852-8"
       inkscape:connector-curvature="0"
       sodipodi:nodetypes="ssss" />
    <rect
       style="opacity:1;fill:#888a85;fill-opacity:1;stroke:none;stroke-width:2;stroke-linecap:butt;stroke-linejoin:miter;stroke-miterlimit:100;stroke-dasharray:none;stroke-dashoffset:0;stroke-opacity:1"
       id="rect5831"
       width="1841.1024"
       height="1735.7267"
       x="-108.57143"
       y="-53.352081" />
    <path
       style="fill:#edd400;fill-rule:evenodd;stroke:none;stroke-width:1px;stroke-linecap:butt;stroke-linejoin:miter;stroke-opacity:1"
       d="M 205.03014,154.43265 C 206.53812,120.37077 305.13348,69.907475 329.87075,88.196098 404.41046,166.24766 222.0202,289.52236 205.03014,154.43265 Z"
       id="path6045-2"
       inkscape:connector-curvature="0"
       sodipodi:nodetypes="ccc" />
    <path
       style="fill:#fce94f;fill-rule:evenodd;stroke:none;stroke-width:1px;stroke-linecap:butt;stroke-linejoin:miter;stroke-opacity:1"
       d="M 196.20148,244.41455 C 154.89855,170.26451 395.42146,37.145298 421.58165,157.88468 447.74185,278.62406 237.50441,318.56459 196.20148,244.41455 Z"
       id="path6045"
       inkscape:connector-curvature="0"
       sodipodi:nodetypes="zzz" />
    <path
       style="fill:#000000;fill-rule:evenodd;stroke:none;stroke-width:1px;stroke-linecap:butt;stroke-linejoin:miter;stroke-opacity:1"
       d="m 377.88224,173.9232 c 10.5597,-8.51544 14.60056,-21.56401 13.5329,-30.79238 5.20519,11.41393 1.62322,27.35411 -5.30566,33.7746 -4.92088,4.55978 -13.18048,1.01212 -8.22724,-2.98222 z"
       id="path5875-5"
       inkscape:connector-curvature="0"
       sodipodi:nodetypes="scss" />
    <path
       style="fill:#000000;fill-rule:evenodd;stroke:none;stroke-width:1px;stroke-linecap:butt;stroke-linejoin:miter;stroke-opacity:1"
       d="m 364.51905,172.26136 c 7.82352,-11.0821 8.13586,-24.73845 4.58139,-33.32148 8.13239,9.55175 9.05342,25.86346 4.14806,33.93622 -3.48379,5.73324 -12.39921,4.58354 -8.72945,-0.61474 z"
       id="path5875-4-4-8"
       inkscape:connector-curvature="0"
       sodipodi:nodetypes="scss" />
    <path
       style="fill:#000000;fill-rule:evenodd;stroke:none;stroke-width:1px;stroke-linecap:butt;stroke-linejoin:miter;stroke-opacity:1"
       d="m 385.83227,181.24899 c 13.028,-3.78035 21.79171,-14.25847 24.36832,-23.18392 0.39687,12.5385 -9.05945,25.86135 -17.92943,29.11027 -6.29944,2.30739 -12.54994,-4.1531 -6.43889,-5.92635 z"
       id="path5875-4-9"
       inkscape:connector-curvature="0"
       sodipodi:nodetypes="scss" />
    <circle
       style="opacity:1;fill:#ffffff;fill-opacity:1;stroke:none;stroke-width:2;stroke-linecap:butt;stroke-linejoin:miter;stroke-miterlimit:100;stroke-dasharray:none;stroke-dashoffset:0;stroke-opacity:1"
       id="path5829-3"
       cx="354.858"
       cy="202.97014"
       r="39.285713" />
    <path
       style="fill:#000000;fill-rule:evenodd;stroke:none;stroke-width:1px;stroke-linecap:butt;stroke-linejoin:miter;stroke-opacity:1"
       d="m 201.59989,301.97784 c 21.65509,72.79628 -4.9796,95.32336 -4.9796,95.32336 0,0 49.65916,-8.28922 37.68362,-68.10862 -10.86505,-54.27231 -3.13128,-79.38441 8.73903,-77.93651 15.50574,1.89133 -1.23675,-22.35429 -6.96955,-24.90076 -14.64419,-6.50485 -56.61082,1.20519 -34.4735,75.62253 z"
       id="path5856"
       inkscape:connector-curvature="0"
       sodipodi:nodetypes="scssss" />
    <path
       style="fill:#4e9a06;fill-rule:evenodd;stroke:none;stroke-width:1px;stroke-linecap:butt;stroke-linejoin:miter;stroke-opacity:1"
       d="m 247.38012,217.67059 c -1.77183,-0.84119 -17.50497,-3.50881 -16.09387,12.94725 1.46599,17.09573 3.32263,23.33877 14.89043,24.70548 15.31872,1.80984 7.90266,-34.47219 1.20344,-37.65273 z"
       id="path5852"
       inkscape:connector-curvature="0"
       sodipodi:nodetypes="ssss" />
    <circle
       style="opacity:1;fill:#000000;fill-opacity:1;stroke:none;stroke-width:2;stroke-linecap:butt;stroke-linejoin:miter;stroke-miterlimit:100;stroke-dasharray:none;stroke-dashoffset:0;stroke-opacity:1"
       id="path5858-1"
       cx="371.69577"
       cy="201.84319"
       r="15.714286" />
    <path
       style="fill:#000000;fill-rule:evenodd;stroke:none;stroke-width:1px;stroke-linecap:butt;stroke-linejoin:miter;stroke-opacity:1"
       d="m 246.48861,245.89721 c -11.22024,-103.14902 98.77511,-46.03393 104.6573,-27.75522 4.67516,14.52792 -99.11186,78.73516 -104.6573,27.75522 z"
       id="path5850"
       inkscape:connector-curvature="0"
       sodipodi:nodetypes="sss" />
    <path
       style="fill:#8f5902;fill-opacity:1;fill-rule:evenodd;stroke:none;stroke-width:1px;stroke-linecap:butt;stroke-linejoin:miter;stroke-opacity:1"
       d="m 267.8495,382.76537 c -5.208,-10.97363 19.6364,-17.86359 25.82017,-19.81033 6.79159,-2.1381 1.5603,-11.07159 13.96049,-12.38837 19.83348,-2.10613 11.75952,10.31315 18.17379,8.80391 3.49346,-0.82199 18.47721,-1.68906 18.29421,7.19698 -0.18445,8.95638 -20.93538,14.93857 -26.02907,15.37877 -10.18738,0.88039 -46.50814,8.63934 -50.21959,0.81904 z"
       id="path5987"
       inkscape:connector-curvature="0"
       sodipodi:nodetypes="sssssss" />
    <path
       style="fill:#8f5902;fill-opacity:1;fill-rule:evenodd;stroke:none;stroke-width:1px;stroke-linecap:butt;stroke-linejoin:miter;stroke-opacity:1"
       d="m 335.88947,359.27047 c -4.19856,1.52867 -1.59639,14.81104 3.04548,15.07559 8.38503,0.47789 36.87978,-5.81113 54.29086,-3.43939 7.36066,1.00268 42.16209,9.78686 50.29692,28.44783 2.72409,6.24895 0.96441,6.0816 1.16622,12.87486 0.52504,17.6731 -13.7682,27.35154 -10.97062,30.46856 3.63471,4.04974 13.52846,-4.2323 16.93887,-11.90454 1.20244,-2.70506 11.5022,-7.83361 15.7011,-7.48008 8.7727,0.73861 22.33723,8.73627 26.66007,11.42972 4.32286,2.69345 13.22516,-0.60037 8.82654,-6.64893 -4.39862,-6.04857 -20.9912,-12.38152 -26.33649,-15.47277 8.37663,-2.50288 27.9317,3.05003 34.82848,4.47842 6.89676,1.42837 11.77352,-4.75421 5.68421,-8.84102 -6.0893,-4.08681 -29.54828,-7.41978 -35.60091,-6.95029 5.66013,-4.62695 19.89727,-3.96435 26.85841,-6.55478 6.67624,-2.48442 5.61395,-8.31415 0.0478,-8.46173 -7.44244,-0.19734 -26.0375,3.38002 -29.39261,3.45578 -3.35512,0.0758 -16.29538,2.52208 -21.88836,-2.22135 -19.39354,-16.44773 -42.64267,-26.04251 -61.66854,-28.44165 -19.02589,-2.39914 -54.12877,-1.40122 -58.48746,0.18577 z"
       id="path5989-3"
       inkscape:connector-curvature="0"
       sodipodi:nodetypes="sssssssssscsscssssss" />
    <path
       style="fill:#8f5902;fill-opacity:1;fill-rule:evenodd;stroke:none;stroke-width:1px;stroke-linecap:butt;stroke-linejoin:miter;stroke-opacity:1"
       d="m 389.27268,500.99678 c 21.9322,27.25358 16.7896,44.44886 30.49223,47.11495 10.3041,2.00486 19.17511,-20.31438 40.93127,-30.18611 12.57293,-5.70489 16.8677,-15.85365 16.8677,-15.85365 7.76754,1.98104 17.08084,-9.94141 17.49685,-16.09841 0.1529,-2.26295 -2.38862,-5.01886 -2.38862,-5.01886 0,0 2.35113,-0.88247 2.73619,-2.49972 0.62886,-2.64117 -2.14524,-3.34117 -2.14524,-3.34117 0,0 2.22947,-0.0723 2.13609,-2.18262 -0.0923,-2.08703 -2.33524,-2.41346 -2.33524,-2.41346 0,0 1.74121,-1.94343 -0.55136,-3.29402 -4.45035,-2.62173 -13.82654,13.30819 -16.95273,14.43376 -9.8743,3.69277 -33.20712,6.39191 -45.19442,13.41991 -8.26927,4.84814 -17.35293,-2.25084 -27.38753,-8.07411 -8.82287,-5.12006 -19.33029,7.00371 -13.70527,13.99352 z"
       id="path6028-1"
       inkscape:connector-curvature="0"
       sodipodi:nodetypes="csscscscscscsssc" />
    <path
       style="fill:#3465a4;fill-rule:evenodd;stroke:none;stroke-width:1px;stroke-linecap:butt;stroke-linejoin:miter;stroke-opacity:1"
       d="m 368.99729,438.9291 c 3.52157,18.61399 29.55599,39.86914 33.20333,41.7557 -0.62885,4.40196 -12.45124,16.72743 -18.86553,17.35629 -3.27003,-3.77311 -20.6263,-26.66328 -36.22181,-24.65096 -4.27617,-14.84088 13.08011,-30.68792 21.88401,-34.46103 z"
       id="path6006-4"
       inkscape:connector-curvature="0"
       sodipodi:nodetypes="ccccc" />
    <path
       style="fill:#3465a4;fill-rule:evenodd;stroke:none;stroke-width:1px;stroke-linecap:butt;stroke-linejoin:miter;stroke-opacity:1"
       d="m 281.5312,365.99296 c 2.13809,-1.6979 10.37356,-4.2059 13.01473,-4.01724 1.50924,2.70406 3.57334,9.27488 3.82488,12.92221 6.79159,1.06905 24.11947,-1.60788 27.89257,-4.4377 0.62886,-1.57213 -0.20097,-8.64603 -1.83598,-11.28721 2.45252,-1.2577 10.20833,-1.7016 11.5918,-0.63255 5.78543,33.95795 52.43305,40.43954 37.79388,88.3226 -13.9383,45.59062 -80.28956,50.17332 -101.32253,11.87169 -22.51371,-40.9981 17.07513,-53.97751 9.04065,-92.7418 z"
       id="path5985"
       inkscape:connector-curvature="0"
       sodipodi:nodetypes="ccccccssc" />
    <path
       style="fill:#8f5902;fill-opacity:1;fill-rule:evenodd;stroke:none;stroke-width:1px;stroke-linecap:butt;stroke-linejoin:miter;stroke-opacity:1"
       d="m 297.13157,359.03348 c -2.1157,-66.19623 -50.05286,-60.42645 -50.703,-113.81413 -0.85562,-70.26091 136.43298,-52.6548 138.85155,-8.06835 4.6051,84.89531 -65.24807,36.5346 -61.71998,121.16819 0.74488,17.86849 -25.90178,17.19644 -26.42857,0.71429 z"
       id="path5833"
       inkscape:connector-curvature="0"
       sodipodi:nodetypes="sssss" />
    <path
       style="fill:#000000;fill-rule:evenodd;stroke:none;stroke-width:1px;stroke-linecap:butt;stroke-linejoin:miter;stroke-opacity:1"
       d="m 276.85523,173.60689 c -1.85332,-13.4382 -10.95148,-23.62727 -19.40957,-27.46959 12.46376,1.42356 24.27628,12.71002 26.20612,21.95706 1.37055,6.56722 -5.92721,11.81599 -6.79655,5.51253 z"
       id="path5875"
       inkscape:connector-curvature="0"
       sodipodi:nodetypes="scss" />
    <path
       style="fill:#000000;fill-rule:evenodd;stroke:none;stroke-width:1px;stroke-linecap:butt;stroke-linejoin:miter;stroke-opacity:1"
       d="m 268.54254,184.20102 c -5.46316,-12.41669 -17.00417,-19.72413 -26.19121,-21.10286 12.37703,-2.04468 26.82919,5.57472 31.21797,13.93957 3.11689,5.94069 -2.46415,12.98758 -5.02676,7.16329 z"
       id="path5875-4-4"
       inkscape:connector-curvature="0"
       sodipodi:nodetypes="scss" />
    <path
       style="fill:#000000;fill-rule:evenodd;stroke:none;stroke-width:1px;stroke-linecap:butt;stroke-linejoin:miter;stroke-opacity:1"
       d="m 287.23085,170.571 c 3.47655,-13.11235 -0.98441,-26.02333 -7.30432,-32.83225 10.94872,6.12348 17.49025,21.09441 15.70179,30.36983 -1.27016,6.58738 -10.02821,8.61303 -8.39747,2.46242 z"
       id="path5875-4"
       inkscape:connector-curvature="0"
       sodipodi:nodetypes="scss" />
    <circle
       style="opacity:1;fill:#ffffff;fill-opacity:1;stroke:none;stroke-width:2;stroke-linecap:butt;stroke-linejoin:miter;stroke-miterlimit:100;stroke-dasharray:none;stroke-dashoffset:0;stroke-opacity:1"
       id="path5829"
       cx="302.85715"
       cy="204.50507"
       r="39.285713" />
    <circle
       style="opacity:1;fill:#000000;fill-opacity:1;stroke:none;stroke-width:2;stroke-linecap:butt;stroke-linejoin:miter;stroke-miterlimit:100;stroke-dasharray:none;stroke-dashoffset:0;stroke-opacity:1"
       id="path5858"
       cx="319.30283"
       cy="202.46841"
       r="15.714286" />
    <path
       style="fill:#ce5c00;fill-rule:evenodd;stroke:none;stroke-width:1px;stroke-linecap:butt;stroke-linejoin:miter;stroke-opacity:1"
       d="m 311.70451,282.51764 c 13.62827,4.04329 50.55849,12.40784 69.71244,-1.17991 -18.36216,42.47994 -77.48654,28.79991 -69.71244,1.17991 z"
       id="path5947-6"
       inkscape:connector-curvature="0"
       sodipodi:nodetypes="ccc" />
    <path
       style="fill:#f57900;fill-rule:evenodd;stroke:none;stroke-width:1px;stroke-linecap:butt;stroke-linejoin:miter;stroke-opacity:1"
       d="m 310.8146,281.69573 c 24.15178,9.35172 47.80451,6.83464 71.80113,-1.08408 -16.91615,22.5492 -57.77009,26.25102 -71.80113,1.08408 z"
       id="path5947"
       inkscape:connector-curvature="0"
       sodipodi:nodetypes="ccc" />
    <path
       style="fill:#8f5902;fill-opacity:1;fill-rule:evenodd;stroke:none;stroke-width:1px;stroke-linecap:butt;stroke-linejoin:miter;stroke-opacity:1"
       d="m 274.9992,370.35796 c 3.94364,-0.9185 8.43849,14.33923 3.44648,15.8037 -9.12692,2.6775 -37.02273,11.84239 -56.89827,29.15413 -8.40253,7.31868 -27.14911,27.29198 -23.48965,53.36219 1.42139,10.12607 9.08152,11.94044 14.42284,20.62352 13.89576,22.58959 39.78586,22.95303 38.84538,29.16477 -1.22192,8.07048 -20.44632,5.83471 -31.04022,-0.97565 -3.73518,-2.40118 -20.87168,-0.349 -25.84482,3.55208 -10.39031,8.15044 -20.81031,29.34787 -24.0119,36.28464 -3.20158,6.93676 -17.07513,10.13836 -16.54153,-1.06719 0.53359,-11.20556 16.12087,-32.80953 20.27671,-41.08703 -12.56314,3.76034 -32.50693,26.82602 -39.97731,34.29639 -7.47036,7.47036 -18.67591,3.73518 -14.40712,-6.40318 4.26877,-10.13835 30.93514,-33.63575 38.9101,-38.03156 -10.90659,-1.13973 -28.21039,11.41545 -39.07101,13.90035 -10.41612,2.38319 -13.88515,-5.8005 -7.02831,-10.5693 9.16827,-6.37635 35.42736,-17.20459 39.69615,-19.87258 4.26878,-2.66799 21.7487,-10.51087 25.61268,-20.81031 6.74462,-17.97778 11.89264,-40.34901 33.77014,-59.02493 21.87751,-18.67591 56.55312,-36.72174 63.32966,-38.30004 z"
       id="path5989"
       inkscape:connector-curvature="0"
       sodipodi:nodetypes="sssssssssscsscssssss" />
    <path
       style="fill:#3465a4;fill-rule:evenodd;stroke:none;stroke-width:1px;stroke-linecap:butt;stroke-linejoin:miter;stroke-opacity:1"
       d="m 285.2969,471.45218 c 10.67195,15.6522 7.2925,49.09099 6.04744,53.00404 3.55732,2.66799 20.63244,3.02372 25.61269,-1.0672 -0.35573,-4.98025 -4.26879,-33.43879 8.18183,-43.04354 -7.47037,-13.51781 -30.94867,-12.45062 -39.84196,-8.8933 z"
       id="path6006"
       inkscape:connector-curvature="0"
       sodipodi:nodetypes="ccccc" />
    <path
       style="fill:#8f5902;fill-rule:evenodd;stroke:none;stroke-width:1px;stroke-linecap:butt;stroke-linejoin:miter;stroke-opacity:1;fill-opacity:1"
       d="m 293.90072,533.7326 c -3.76279,34.7796 -19.55805,43.30213 -11.75404,54.87657 5.86845,8.70376 27.92329,-0.80559 50.28758,7.59798 12.92437,4.85643 21.3089,0.74758 25.53869,0.27761 2.24981,4.47159 8.12373,9.13737 13.9728,5.18089 3.50947,-2.37391 -2.05883,-9.4343 -2.05883,-9.4343 0,0 6.46112,7.36393 11.94084,3.50352 5.49586,-3.87179 -1.27227,-8.9722 -1.27227,-8.9722 0,0 8.14093,5.73844 12.83817,3.50352 3.95578,-1.88213 2.06345,-6.97825 -1.82807,-8.41045 0,0 15.30707,3.36045 13.28072,-7.72678 -1.32707,-7.26109 -23.08018,-2.78839 -29.13477,1.42433 -5.31718,-4.87409 -35.12233,-13.44258 -48.56816,-16.94935 -9.27542,-2.4191 -9.43374,-14.39554 -12.41161,-25.60875 -2.61829,-9.85915 -19.866,-8.18261 -20.83105,0.73741 z"
       id="path6028"
       inkscape:connector-curvature="0"
       sodipodi:nodetypes="ssscscscscscsss" />
    <path
       style="fill:#729fcf;fill-rule:evenodd;stroke:none;stroke-width:1px;stroke-linecap:butt;stroke-linejoin:miter;stroke-opacity:1"
       d="m 291.96687,532.81592 c -1.42293,-1.24507 -3.02372,-9.37589 -2.75692,-13.2 6.58104,2.66799 26.23522,0.97825 29.79254,-1.51187 0.88933,3.73518 -0.0889,13.11107 -2.22332,14.17826 -3.91305,1.0672 -22.05538,1.77867 -24.8123,0.53361 z"
       id="path6008"
       inkscape:connector-curvature="0"
       sodipodi:nodetypes="ccccc" />
    <path
       style="fill:#729fcf;fill-rule:evenodd;stroke:none;stroke-width:1px;stroke-linecap:butt;stroke-linejoin:miter;stroke-opacity:1"
       d="m 407.67162,487.03619 c 0.12577,-1.88655 -4.59061,-9.36986 -7.48332,-11.88527 -2.76694,6.54006 -17.85937,19.24283 -22.13556,19.99745 2.01233,3.27002 9.43273,9.81009 11.69662,9.05546 3.52157,-2.01234 16.85322,-14.3378 17.92226,-17.16764 z"
       id="path6008-0"
       inkscape:connector-curvature="0"
       sodipodi:nodetypes="ccccc" />
    <path
       style="fill:#edd400;fill-rule:evenodd;stroke:none;stroke-width:1px;stroke-linecap:butt;stroke-linejoin:miter;stroke-opacity:1"
       d="M 723.52661,151.59334 C 725.03459,117.53146 823.62995,67.068164 848.36722,85.356794 922.90693,163.40835 740.51667,286.68305 723.52661,151.59334 Z"
       id="path6045-2-1"
       inkscape:connector-curvature="0"
       sodipodi:nodetypes="ccc" />
    <path
       style="fill:#c4a000;fill-rule:evenodd;stroke:none;stroke-width:1px;stroke-linecap:butt;stroke-linejoin:miter;stroke-opacity:1"
       d="M 714.69795,241.57524 C 673.39502,167.4252 913.91793,34.305994 940.07812,155.04537 966.23832,275.78475 756.00088,315.72528 714.69795,241.57524 Z"
       id="path6045-1"
       inkscape:connector-curvature="0"
       sodipodi:nodetypes="zzz" />
    <path
       style="fill:#000000;fill-rule:evenodd;stroke:none;stroke-width:1px;stroke-linecap:butt;stroke-linejoin:miter;stroke-opacity:1"
       d="m 896.37871,171.08389 c 10.5597,-8.51544 14.60056,-21.56401 13.5329,-30.79238 5.20519,11.41393 1.62322,27.35411 -5.30566,33.7746 -4.92088,4.55978 -13.18048,1.01212 -8.22724,-2.98222 z"
       id="path5875-5-3"
       inkscape:connector-curvature="0"
       sodipodi:nodetypes="scss" />
    <path
       style="fill:#000000;fill-rule:evenodd;stroke:none;stroke-width:1px;stroke-linecap:butt;stroke-linejoin:miter;stroke-opacity:1"
       d="m 883.01552,169.42205 c 7.82352,-11.0821 8.13586,-24.73845 4.58139,-33.32148 8.13239,9.55175 9.05342,25.86346 4.14806,33.93622 -3.48379,5.73324 -12.39921,4.58354 -8.72945,-0.61474 z"
       id="path5875-4-4-8-3"
       inkscape:connector-curvature="0"
       sodipodi:nodetypes="scss" />
    <path
       style="fill:#000000;fill-rule:evenodd;stroke:none;stroke-width:1px;stroke-linecap:butt;stroke-linejoin:miter;stroke-opacity:1"
       d="m 904.32874,178.40968 c 13.028,-3.78035 21.79171,-14.25847 24.36832,-23.18392 0.39687,12.5385 -9.05945,25.86135 -17.92943,29.11027 -6.29944,2.30739 -12.54994,-4.1531 -6.43889,-5.92635 z"
       id="path5875-4-9-5"
       inkscape:connector-curvature="0"
       sodipodi:nodetypes="scss" />
    <circle
       style="opacity:1;fill:#ffffff;fill-opacity:1;stroke:none;stroke-width:2;stroke-linecap:butt;stroke-linejoin:miter;stroke-miterlimit:100;stroke-dasharray:none;stroke-dashoffset:0;stroke-opacity:1"
       id="path5829-3-8"
       cx="873.35449"
       cy="200.13081"
       r="39.285713" />
    <path
       style="fill:#a40000;fill-rule:evenodd;stroke:none;stroke-width:1px;stroke-linecap:butt;stroke-linejoin:miter;stroke-opacity:1"
       d="m 720.09636,299.13853 c 21.65509,72.79628 -4.9796,95.32336 -4.9796,95.32336 0,0 49.65916,-8.28922 37.68362,-68.10862 -10.86505,-54.27231 -3.13128,-79.38441 8.73903,-77.93651 15.50574,1.89133 -1.23675,-22.35429 -6.96955,-24.90076 -14.64419,-6.50485 -56.61082,1.20519 -34.4735,75.62253 z"
       id="path5856-6"
       inkscape:connector-curvature="0"
       sodipodi:nodetypes="scssss" />
    <path
       style="fill:#4e9a06;fill-rule:evenodd;stroke:none;stroke-width:1px;stroke-linecap:butt;stroke-linejoin:miter;stroke-opacity:1"
       d="m 765.87659,214.83128 c -1.77183,-0.84119 -17.50497,-3.50881 -16.09387,12.94725 1.46599,17.09573 3.32263,23.33877 14.89043,24.70548 15.31872,1.80984 7.90266,-34.47219 1.20344,-37.65273 z"
       id="path5852-3"
       inkscape:connector-curvature="0"
       sodipodi:nodetypes="ssss" />
    <circle
       style="opacity:1;fill:#000000;fill-opacity:1;stroke:none;stroke-width:2;stroke-linecap:butt;stroke-linejoin:miter;stroke-miterlimit:100;stroke-dasharray:none;stroke-dashoffset:0;stroke-opacity:1"
       id="path5858-1-6"
       cx="890.19226"
       cy="199.00386"
       r="15.714286" />
    <path
       style="fill:#a40000;fill-rule:evenodd;stroke:none;stroke-width:1px;stroke-linecap:butt;stroke-linejoin:miter;stroke-opacity:1"
       d="m 764.98508,243.0579 c -11.22024,-103.14902 98.77511,-46.03393 104.6573,-27.75522 4.67516,14.52792 -99.11186,78.73516 -104.6573,27.75522 z"
       id="path5850-2"
       inkscape:connector-curvature="0"
       sodipodi:nodetypes="sss" />
    <path
       style="fill:#e9b96e;fill-opacity:1;fill-rule:evenodd;stroke:none;stroke-width:1px;stroke-linecap:butt;stroke-linejoin:miter;stroke-opacity:1"
       d="m 786.34597,379.92606 c -5.208,-10.97363 19.6364,-17.86359 25.82017,-19.81033 6.79159,-2.1381 1.5603,-11.07159 13.96049,-12.38837 19.83348,-2.10613 11.75952,10.31315 18.17379,8.80391 3.49346,-0.82199 18.47721,-1.68906 18.29421,7.19698 -0.18445,8.95638 -20.93538,14.93857 -26.02907,15.37877 -10.18738,0.88039 -46.50814,8.63934 -50.21959,0.81904 z"
       id="path5987-7"
       inkscape:connector-curvature="0"
       sodipodi:nodetypes="sssssss" />
    <path
       style="fill:#e9b96e;fill-opacity:1;fill-rule:evenodd;stroke:none;stroke-width:1px;stroke-linecap:butt;stroke-linejoin:miter;stroke-opacity:1"
       d="m 854.38594,356.43116 c -4.19856,1.52867 -1.59639,14.81104 3.04548,15.07559 8.38503,0.47789 36.87978,-5.81113 54.29086,-3.43939 7.36066,1.00268 42.16209,9.78686 50.29692,28.44783 2.72409,6.24895 0.96441,6.0816 1.16622,12.87486 0.52504,17.6731 -13.7682,27.35154 -10.97062,30.46856 3.63471,4.04974 13.52846,-4.2323 16.93887,-11.90454 1.20244,-2.70506 11.5022,-7.83361 15.7011,-7.48008 8.7727,0.73861 22.33723,8.73627 26.66003,11.42972 4.3229,2.69345 13.2252,-0.60037 8.8266,-6.64893 -4.3986,-6.04857 -20.99122,-12.38152 -26.33651,-15.47277 8.37661,-2.50288 27.93171,3.05003 34.82851,4.47842 6.8967,1.42837 11.7735,-4.75421 5.6842,-8.84102 -6.0893,-4.08681 -29.5483,-7.41978 -35.60093,-6.95029 5.66013,-4.62695 19.89723,-3.96435 26.85843,-6.55478 6.6762,-2.48442 5.6139,-8.31415 0.048,-8.46173 -7.4425,-0.19734 -26.03752,3.38002 -29.39263,3.45578 -3.35512,0.0758 -16.29538,2.52208 -21.88836,-2.22135 -19.39354,-16.44773 -42.64267,-26.04251 -61.66854,-28.44165 -19.02589,-2.39914 -54.12877,-1.40122 -58.48746,0.18577 z"
       id="path5989-3-5"
       inkscape:connector-curvature="0"
       sodipodi:nodetypes="sssssssssscsscssssss" />
    <path
       style="fill:#e9b96e;fill-opacity:1;fill-rule:evenodd;stroke:none;stroke-width:1px;stroke-linecap:butt;stroke-linejoin:miter;stroke-opacity:1"
       d="m 907.76915,498.15747 c 21.9322,27.25358 16.7896,44.44886 30.49223,47.11495 10.3041,2.00486 19.17511,-20.31438 40.93127,-30.18611 12.57293,-5.70489 16.8677,-15.85365 16.8677,-15.85365 7.76755,1.98104 17.08085,-9.94141 17.49685,-16.09841 0.1529,-2.26295 -2.3886,-5.01886 -2.3886,-5.01886 0,0 2.3511,-0.88247 2.7362,-2.49972 0.6288,-2.64117 -2.1453,-3.34117 -2.1453,-3.34117 0,0 2.2295,-0.0723 2.1361,-2.18262 -0.092,-2.08703 -2.3352,-2.41346 -2.3352,-2.41346 0,0 1.7412,-1.94343 -0.5514,-3.29402 -4.4503,-2.62173 -13.82652,13.30819 -16.95271,14.43376 -9.8743,3.69277 -33.20712,6.39191 -45.19442,13.41991 -8.26927,4.84814 -17.35293,-2.25084 -27.38753,-8.07411 -8.82287,-5.12006 -19.33029,7.00371 -13.70527,13.99352 z"
       id="path6028-1-4"
       inkscape:connector-curvature="0"
       sodipodi:nodetypes="csscscscscscsssc" />
    <path
       style="fill:#3465a4;fill-rule:evenodd;stroke:none;stroke-width:1px;stroke-linecap:butt;stroke-linejoin:miter;stroke-opacity:1"
       d="m 887.49376,436.08979 c 3.52157,18.61399 29.55599,39.86914 33.20333,41.7557 -0.62885,4.40196 -12.45124,16.72743 -18.86553,17.35629 -3.27003,-3.77311 -20.6263,-26.66328 -36.22181,-24.65096 -4.27617,-14.84088 13.08011,-30.68792 21.88401,-34.46103 z"
       id="path6006-4-5"
       inkscape:connector-curvature="0"
       sodipodi:nodetypes="ccccc" />
    <path
       style="fill:#3465a4;fill-rule:evenodd;stroke:none;stroke-width:1px;stroke-linecap:butt;stroke-linejoin:miter;stroke-opacity:1"
       d="m 800.02767,363.15365 c 2.13809,-1.6979 10.37356,-4.2059 13.01473,-4.01724 1.50924,2.70406 3.57334,9.27488 3.82488,12.92221 6.79159,1.06905 24.11947,-1.60788 27.89257,-4.4377 0.62886,-1.57213 -0.20097,-8.64603 -1.83598,-11.28721 2.45252,-1.2577 10.20833,-1.7016 11.5918,-0.63255 5.78543,33.95795 52.43305,40.43954 37.79388,88.3226 -13.9383,45.59062 -80.28956,50.17332 -101.32253,11.87169 -22.51371,-40.9981 17.07513,-53.97751 9.04065,-92.7418 z"
       id="path5985-1"
       inkscape:connector-curvature="0"
       sodipodi:nodetypes="ccccccssc" />
    <path
       style="fill:#e9b96e;fill-opacity:1;fill-rule:evenodd;stroke:none;stroke-width:1px;stroke-linecap:butt;stroke-linejoin:miter;stroke-opacity:1"
       d="m 815.62804,356.19417 c -2.1157,-66.19623 -50.05286,-60.42645 -50.703,-113.81413 -0.85562,-70.26091 136.43298,-52.6548 138.85155,-8.06835 4.6051,84.89531 -65.24807,36.5346 -61.71998,121.16819 0.74488,17.86849 -25.90178,17.19644 -26.42857,0.71429 z"
       id="path5833-8"
       inkscape:connector-curvature="0"
       sodipodi:nodetypes="sssss" />
    <path
       style="fill:#000000;fill-rule:evenodd;stroke:none;stroke-width:1px;stroke-linecap:butt;stroke-linejoin:miter;stroke-opacity:1"
       d="m 795.3517,170.76758 c -1.85332,-13.4382 -10.95148,-23.62727 -19.40957,-27.46959 12.46376,1.42356 24.27628,12.71002 26.20612,21.95706 1.37055,6.56722 -5.92721,11.81599 -6.79655,5.51253 z"
       id="path5875-8"
       inkscape:connector-curvature="0"
       sodipodi:nodetypes="scss" />
    <path
       style="fill:#000000;fill-rule:evenodd;stroke:none;stroke-width:1px;stroke-linecap:butt;stroke-linejoin:miter;stroke-opacity:1"
       d="m 787.03901,181.36171 c -5.46316,-12.41669 -17.00417,-19.72413 -26.19121,-21.10286 12.37703,-2.04468 26.82919,5.57472 31.21797,13.93957 3.11689,5.94069 -2.46415,12.98758 -5.02676,7.16329 z"
       id="path5875-4-4-2"
       inkscape:connector-curvature="0"
       sodipodi:nodetypes="scss" />
    <path
       style="fill:#000000;fill-rule:evenodd;stroke:none;stroke-width:1px;stroke-linecap:butt;stroke-linejoin:miter;stroke-opacity:1"
       d="m 805.72732,167.73169 c 3.47655,-13.11235 -0.98441,-26.02333 -7.30432,-32.83225 10.94872,6.12348 17.49025,21.09441 15.70179,30.36983 -1.27016,6.58738 -10.02821,8.61303 -8.39747,2.46242 z"
       id="path5875-4-2"
       inkscape:connector-curvature="0"
       sodipodi:nodetypes="scss" />
    <circle
       style="opacity:1;fill:#ffffff;fill-opacity:1;stroke:none;stroke-width:2;stroke-linecap:butt;stroke-linejoin:miter;stroke-miterlimit:100;stroke-dasharray:none;stroke-dashoffset:0;stroke-opacity:1"
       id="path5829-5"
       cx="821.35364"
       cy="201.66576"
       r="39.285713" />
    <circle
       style="opacity:1;fill:#000000;fill-opacity:1;stroke:none;stroke-width:2;stroke-linecap:butt;stroke-linejoin:miter;stroke-miterlimit:100;stroke-dasharray:none;stroke-dashoffset:0;stroke-opacity:1"
       id="path5858-9"
       cx="837.79932"
       cy="199.6291"
       r="15.714286" />
    <path
       style="fill:#ce5c00;fill-rule:evenodd;stroke:none;stroke-width:1px;stroke-linecap:butt;stroke-linejoin:miter;stroke-opacity:1"
       d="m 830.20098,279.67833 c 13.62827,4.04329 50.55849,12.40784 69.71244,-1.17991 -18.36216,42.47994 -77.48654,28.79991 -69.71244,1.17991 z"
       id="path5947-6-2"
       inkscape:connector-curvature="0"
       sodipodi:nodetypes="ccc" />
    <path
       style="fill:#f57900;fill-rule:evenodd;stroke:none;stroke-width:1px;stroke-linecap:butt;stroke-linejoin:miter;stroke-opacity:1"
       d="m 829.31107,278.85642 c 24.15178,9.35172 47.80451,6.83464 71.80113,-1.08408 -16.91615,22.5492 -57.77009,26.25102 -71.80113,1.08408 z"
       id="path5947-4"
       inkscape:connector-curvature="0"
       sodipodi:nodetypes="ccc" />
    <path
       style="fill:#e9b96e;fill-opacity:1;fill-rule:evenodd;stroke:none;stroke-width:1px;stroke-linecap:butt;stroke-linejoin:miter;stroke-opacity:1"
       d="m 793.49567,367.51865 c 3.94364,-0.9185 8.43849,14.33923 3.44648,15.8037 -9.12692,2.6775 -37.02273,11.84239 -56.89827,29.15413 -8.40253,7.31868 -27.14911,27.29198 -23.48965,53.36219 1.42139,10.12607 9.08152,11.94044 14.42284,20.62352 13.89576,22.58959 39.78586,22.95303 38.84538,29.16477 -1.22192,8.07048 -20.44632,5.83471 -31.04022,-0.97565 -3.73518,-2.40118 -20.87168,-0.349 -25.84482,3.55208 -10.39031,8.15044 -20.81031,29.34787 -24.0119,36.28464 -3.20158,6.93676 -17.07513,10.13836 -16.54153,-1.06719 0.53359,-11.20556 16.12087,-32.80953 20.27671,-41.08703 -12.56314,3.76034 -32.50693,26.82602 -39.97731,34.29639 -7.47036,7.47036 -18.67591,3.73518 -14.40712,-6.40318 4.26877,-10.13835 30.93514,-33.63575 38.9101,-38.03156 -10.90659,-1.13973 -28.21039,11.41545 -39.07101,13.90035 -10.41612,2.38319 -13.88515,-5.8005 -7.02831,-10.5693 9.16827,-6.37635 35.42736,-17.20459 39.69615,-19.87258 4.26878,-2.66799 21.7487,-10.51087 25.61268,-20.81031 6.74462,-17.97778 11.89264,-40.34901 33.77014,-59.02493 21.87751,-18.67591 56.55312,-36.72174 63.32966,-38.30004 z"
       id="path5989-5"
       inkscape:connector-curvature="0"
       sodipodi:nodetypes="sssssssssscsscssssss" />
    <path
       style="fill:#3465a4;fill-rule:evenodd;stroke:none;stroke-width:1px;stroke-linecap:butt;stroke-linejoin:miter;stroke-opacity:1"
       d="m 803.79337,468.61287 c 10.67195,15.6522 7.2925,49.09099 6.04744,53.00404 3.55732,2.66799 20.63244,3.02372 25.61269,-1.0672 -0.35573,-4.98025 -4.26879,-33.43879 8.18183,-43.04354 -7.47037,-13.51781 -30.94867,-12.45062 -39.84196,-8.8933 z"
       id="path6006-6"
       inkscape:connector-curvature="0"
       sodipodi:nodetypes="ccccc" />
    <path
       style="fill:#e9b96e;fill-opacity:1;fill-rule:evenodd;stroke:none;stroke-width:1px;stroke-linecap:butt;stroke-linejoin:miter;stroke-opacity:1"
       d="m 812.39719,530.89329 c -3.76279,34.7796 -19.55805,43.30213 -11.75404,54.87657 5.86845,8.70376 27.92329,-0.80559 50.28758,7.59798 12.92437,4.85643 21.3089,0.74758 25.53869,0.27761 2.24981,4.47159 8.12373,9.13737 13.9728,5.18089 3.50947,-2.37391 -2.05883,-9.4343 -2.05883,-9.4343 0,0 6.46112,7.36393 11.94084,3.50352 5.49586,-3.87179 -1.27227,-8.9722 -1.27227,-8.9722 0,0 8.14093,5.73844 12.83817,3.50352 3.95578,-1.88213 2.06345,-6.97825 -1.82807,-8.41045 0,0 15.30707,3.36045 13.28072,-7.72678 -1.32707,-7.26109 -23.08018,-2.78839 -29.13477,1.42433 -5.31718,-4.87409 -35.12233,-13.44258 -48.56816,-16.94935 -9.27542,-2.4191 -9.43374,-14.39554 -12.41161,-25.60875 -2.61829,-9.85915 -19.866,-8.18261 -20.83105,0.73741 z"
       id="path6028-0"
       inkscape:connector-curvature="0"
       sodipodi:nodetypes="ssscscscscscsss" />
    <path
       style="fill:#729fcf;fill-rule:evenodd;stroke:none;stroke-width:1px;stroke-linecap:butt;stroke-linejoin:miter;stroke-opacity:1"
       d="m 810.46334,529.97661 c -1.42293,-1.24507 -3.02372,-9.37589 -2.75692,-13.2 6.58104,2.66799 26.23522,0.97825 29.79254,-1.51187 0.88933,3.73518 -0.0889,13.11107 -2.22332,14.17826 -3.91305,1.0672 -22.05538,1.77867 -24.8123,0.53361 z"
       id="path6008-5"
       inkscape:connector-curvature="0"
       sodipodi:nodetypes="ccccc" />
    <path
       style="fill:#729fcf;fill-rule:evenodd;stroke:none;stroke-width:1px;stroke-linecap:butt;stroke-linejoin:miter;stroke-opacity:1"
       d="m 926.16809,484.19688 c 0.12577,-1.88655 -4.59061,-9.36986 -7.48332,-11.88527 -2.76694,6.54006 -17.85937,19.24283 -22.13556,19.99745 2.01233,3.27002 9.43273,9.81009 11.69662,9.05546 3.52157,-2.01234 16.85322,-14.3378 17.92226,-17.16764 z"
       id="path6008-0-9"
       inkscape:connector-curvature="0"
       sodipodi:nodetypes="ccccc" />
    <path
       style="fill:#edd400;fill-rule:evenodd;stroke:none;stroke-width:1px;stroke-linecap:butt;stroke-linejoin:miter;stroke-opacity:1"
       d="m 1277.0453,148.74748 c 1.508,-34.06188 100.1033,-84.525166 124.8406,-66.236536 74.5397,78.051546 -107.8506,201.326246 -124.8406,66.236536 z"
       id="path6045-2-1-4"
       inkscape:connector-curvature="0"
       sodipodi:nodetypes="ccc" />
    <path
       style="fill:#c4a000;fill-rule:evenodd;stroke:none;stroke-width:1px;stroke-linecap:butt;stroke-linejoin:miter;stroke-opacity:1"
       d="m 1268.2166,238.72938 c -41.3029,-74.15004 199.22,-207.269236 225.3802,-86.52987 26.1602,120.73938 -184.0772,160.67991 -225.3802,86.52987 z"
       id="path6045-1-4"
       inkscape:connector-curvature="0"
       sodipodi:nodetypes="zzz" />
    <path
       style="fill:#000000;fill-rule:evenodd;stroke:none;stroke-width:1px;stroke-linecap:butt;stroke-linejoin:miter;stroke-opacity:1"
       d="m 1449.8973,168.23803 c 10.5597,-8.51544 14.6006,-21.56401 13.5329,-30.79238 5.2052,11.41393 1.6233,27.35411 -5.3056,33.7746 -4.9209,4.55978 -13.1805,1.01212 -8.2273,-2.98222 z"
       id="path5875-5-3-9"
       inkscape:connector-curvature="0"
       sodipodi:nodetypes="scss" />
    <path
       style="fill:#000000;fill-rule:evenodd;stroke:none;stroke-width:1px;stroke-linecap:butt;stroke-linejoin:miter;stroke-opacity:1"
       d="m 1436.5342,166.57619 c 7.8235,-11.0821 8.1358,-24.73845 4.5813,-33.32148 8.1324,9.55175 9.0535,25.86346 4.1481,33.93622 -3.4838,5.73324 -12.3992,4.58354 -8.7294,-0.61474 z"
       id="path5875-4-4-8-3-5"
       inkscape:connector-curvature="0"
       sodipodi:nodetypes="scss" />
    <path
       style="fill:#000000;fill-rule:evenodd;stroke:none;stroke-width:1px;stroke-linecap:butt;stroke-linejoin:miter;stroke-opacity:1"
       d="m 1457.8474,175.56382 c 13.028,-3.78035 21.7917,-14.25847 24.3683,-23.18392 0.3969,12.5385 -9.0595,25.86135 -17.9294,29.11027 -6.2995,2.30739 -12.55,-4.1531 -6.4389,-5.92635 z"
       id="path5875-4-9-5-7"
       inkscape:connector-curvature="0"
       sodipodi:nodetypes="scss" />
    <circle
       style="opacity:1;fill:#ffffff;fill-opacity:1;stroke:none;stroke-width:2;stroke-linecap:butt;stroke-linejoin:miter;stroke-miterlimit:100;stroke-dasharray:none;stroke-dashoffset:0;stroke-opacity:1"
       id="path5829-3-8-2"
       cx="1426.8732"
       cy="197.28493"
       r="39.285713" />
    <path
       style="fill:#fce94f;fill-rule:evenodd;stroke:none;stroke-width:1px;stroke-linecap:butt;stroke-linejoin:miter;stroke-opacity:1"
       d="m 1273.615,296.29267 c 21.6551,72.79628 -4.9796,95.32336 -4.9796,95.32336 0,0 49.6592,-8.28922 37.6837,-68.10862 -10.8651,-54.27231 -3.1313,-79.38441 8.739,-77.93651 15.5057,1.89133 -1.2368,-22.35429 -6.9696,-24.90076 -14.6442,-6.50485 -56.6108,1.20519 -34.4735,75.62253 z"
       id="path5856-6-0"
       inkscape:connector-curvature="0"
       sodipodi:nodetypes="scssss" />
    <path
       style="fill:#4e9a06;fill-rule:evenodd;stroke:none;stroke-width:1px;stroke-linecap:butt;stroke-linejoin:miter;stroke-opacity:1"
       d="m 1319.3953,211.98542 c -1.7719,-0.84119 -17.505,-3.50881 -16.0939,12.94725 1.466,17.09573 3.3226,23.33877 14.8904,24.70548 15.3187,1.80984 7.9027,-34.47219 1.2035,-37.65273 z"
       id="path5852-3-2"
       inkscape:connector-curvature="0"
       sodipodi:nodetypes="ssss" />
    <circle
       style="opacity:1;fill:#000000;fill-opacity:1;stroke:none;stroke-width:2;stroke-linecap:butt;stroke-linejoin:miter;stroke-miterlimit:100;stroke-dasharray:none;stroke-dashoffset:0;stroke-opacity:1"
       id="path5858-1-6-2"
       cx="1443.7109"
       cy="196.15804"
       r="15.714286" />
    <path
       style="fill:#fce94f;fill-rule:evenodd;stroke:none;stroke-width:1px;stroke-linecap:butt;stroke-linejoin:miter;stroke-opacity:1"
       d="m 1318.5038,240.21204 c -11.2203,-103.14902 98.775,-46.03393 104.6572,-27.75522 4.6752,14.52792 -99.1118,78.73516 -104.6572,27.75522 z"
       id="path5850-2-6"
       inkscape:connector-curvature="0"
       sodipodi:nodetypes="sss" />
    <path
       style="fill:#fcaf3e;fill-opacity:1;fill-rule:evenodd;stroke:none;stroke-width:1px;stroke-linecap:butt;stroke-linejoin:miter;stroke-opacity:1"
       d="m 1339.8646,377.0802 c -5.208,-10.97363 19.6364,-17.86359 25.8202,-19.81033 6.7916,-2.1381 1.5603,-11.07159 13.9605,-12.38837 19.8334,-2.10613 11.7595,10.31315 18.1738,8.80391 3.4934,-0.82199 18.4772,-1.68906 18.2942,7.19698 -0.1845,8.95638 -20.9354,14.93857 -26.0291,15.37877 -10.1874,0.88039 -46.5081,8.63934 -50.2196,0.81904 z"
       id="path5987-7-7"
       inkscape:connector-curvature="0"
       sodipodi:nodetypes="sssssss" />
    <path
       style="fill:#fcaf3e;fill-opacity:1;fill-rule:evenodd;stroke:none;stroke-width:1px;stroke-linecap:butt;stroke-linejoin:miter;stroke-opacity:1"
       d="m 1407.9046,353.5853 c -4.1986,1.52867 -1.5964,14.81104 3.0455,15.07559 8.385,0.47789 36.8797,-5.81113 54.2908,-3.43939 7.3607,1.00268 42.1621,9.78686 50.2969,28.44783 2.7241,6.24895 0.9644,6.0816 1.1663,12.87486 0.525,17.6731 -13.7682,27.35154 -10.9707,30.46856 3.6347,4.04974 13.5285,-4.2323 16.9389,-11.90454 1.2024,-2.70506 11.5022,-7.83361 15.7011,-7.48008 8.7727,0.73861 22.3372,8.73627 26.66,11.42972 4.3229,2.69345 13.2252,-0.60037 8.8266,-6.64893 -4.3986,-6.04857 -20.9912,-12.38152 -26.3365,-15.47277 8.3766,-2.50288 27.9317,3.05003 34.8285,4.47842 6.8967,1.42837 11.7735,-4.75421 5.6842,-8.84102 -6.0893,-4.08681 -29.5483,-7.41978 -35.6009,-6.95029 5.6601,-4.62695 19.8972,-3.96435 26.8584,-6.55478 6.6762,-2.48442 5.6139,-8.31415 0.048,-8.46173 -7.4425,-0.19734 -26.0375,3.38002 -29.3926,3.45578 -3.3551,0.0758 -16.2954,2.52208 -21.8884,-2.22135 -19.3935,-16.44773 -42.6426,-26.04251 -61.6685,-28.44165 -19.0259,-2.39914 -54.1288,-1.40122 -58.4875,0.18577 z"
       id="path5989-3-5-9"
       inkscape:connector-curvature="0"
       sodipodi:nodetypes="sssssssssscsscssssss" />
    <path
       style="fill:#fcaf3e;fill-opacity:1;fill-rule:evenodd;stroke:none;stroke-width:1px;stroke-linecap:butt;stroke-linejoin:miter;stroke-opacity:1"
       d="m 1461.2878,495.31161 c 21.9322,27.25358 16.7896,44.44886 30.4922,47.11495 10.3041,2.00486 19.1751,-20.31438 40.9313,-30.18611 12.5729,-5.70489 16.8677,-15.85365 16.8677,-15.85365 7.7675,1.98104 17.0808,-9.94141 17.4968,-16.09841 0.1529,-2.26295 -2.3886,-5.01886 -2.3886,-5.01886 0,0 2.3511,-0.88247 2.7362,-2.49972 0.6288,-2.64117 -2.1453,-3.34117 -2.1453,-3.34117 0,0 2.2295,-0.0723 2.1361,-2.18262 -0.092,-2.08703 -2.3352,-2.41346 -2.3352,-2.41346 0,0 1.7412,-1.94343 -0.5514,-3.29402 -4.4503,-2.62173 -13.8265,13.30819 -16.9527,14.43376 -9.8743,3.69277 -33.2071,6.39191 -45.1944,13.41991 -8.2693,4.84814 -17.3529,-2.25084 -27.3875,-8.07411 -8.8229,-5.12006 -19.3303,7.00371 -13.7053,13.99352 z"
       id="path6028-1-4-8"
       inkscape:connector-curvature="0"
       sodipodi:nodetypes="csscscscscscsssc" />
    <path
       style="fill:#3465a4;fill-rule:evenodd;stroke:none;stroke-width:1px;stroke-linecap:butt;stroke-linejoin:miter;stroke-opacity:1"
       d="m 1441.0124,433.24393 c 3.5216,18.61399 29.556,39.86914 33.2033,41.7557 -0.6288,4.40196 -12.4512,16.72743 -18.8655,17.35629 -3.27,-3.77311 -20.6263,-26.66328 -36.2218,-24.65096 -4.2762,-14.84088 13.0801,-30.68792 21.884,-34.46103 z"
       id="path6006-4-5-5"
       inkscape:connector-curvature="0"
       sodipodi:nodetypes="ccccc" />
    <path
       style="fill:#3465a4;fill-rule:evenodd;stroke:none;stroke-width:1px;stroke-linecap:butt;stroke-linejoin:miter;stroke-opacity:1"
       d="m 1353.5463,360.30779 c 2.1381,-1.6979 10.3736,-4.2059 13.0147,-4.01724 1.5093,2.70406 3.5734,9.27488 3.8249,12.92221 6.7916,1.06905 24.1195,-1.60788 27.8926,-4.4377 0.6288,-1.57213 -0.201,-8.64603 -1.836,-11.28721 2.4525,-1.2577 10.2083,-1.7016 11.5918,-0.63255 5.7854,33.95795 52.4331,40.43954 37.7939,88.3226 -13.9383,45.59062 -80.2896,50.17332 -101.3225,11.87169 -22.5137,-40.9981 17.0751,-53.97751 9.0406,-92.7418 z"
       id="path5985-1-6"
       inkscape:connector-curvature="0"
       sodipodi:nodetypes="ccccccssc" />
    <path
       style="fill:#fcaf3e;fill-opacity:1;fill-rule:evenodd;stroke:none;stroke-width:1px;stroke-linecap:butt;stroke-linejoin:miter;stroke-opacity:1"
       d="m 1369.1467,353.34831 c -2.1157,-66.19623 -50.0528,-60.42645 -50.703,-113.81413 -0.8556,-70.26091 136.433,-52.6548 138.8515,-8.06835 4.6051,84.89531 -65.248,36.5346 -61.72,121.16819 0.7449,17.86849 -25.9017,17.19644 -26.4285,0.71429 z"
       id="path5833-8-3"
       inkscape:connector-curvature="0"
       sodipodi:nodetypes="sssss" />
    <path
       style="fill:#000000;fill-rule:evenodd;stroke:none;stroke-width:1px;stroke-linecap:butt;stroke-linejoin:miter;stroke-opacity:1"
       d="m 1348.8704,167.92172 c -1.8533,-13.4382 -10.9515,-23.62727 -19.4096,-27.46959 12.4638,1.42356 24.2762,12.71002 26.2061,21.95706 1.3705,6.56722 -5.9272,11.81599 -6.7965,5.51253 z"
       id="path5875-8-2"
       inkscape:connector-curvature="0"
       sodipodi:nodetypes="scss" />
    <path
       style="fill:#000000;fill-rule:evenodd;stroke:none;stroke-width:1px;stroke-linecap:butt;stroke-linejoin:miter;stroke-opacity:1"
       d="m 1340.5577,178.51585 c -5.4632,-12.41669 -17.0042,-19.72413 -26.1912,-21.10286 12.377,-2.04468 26.8292,5.57472 31.2179,13.93957 3.1169,5.94069 -2.4641,12.98758 -5.0267,7.16329 z"
       id="path5875-4-4-2-7"
       inkscape:connector-curvature="0"
       sodipodi:nodetypes="scss" />
    <path
       style="fill:#000000;fill-rule:evenodd;stroke:none;stroke-width:1px;stroke-linecap:butt;stroke-linejoin:miter;stroke-opacity:1"
       d="m 1359.246,164.88583 c 3.4765,-13.11235 -0.9845,-26.02333 -7.3043,-32.83225 10.9487,6.12348 17.4902,21.09441 15.7017,30.36983 -1.2701,6.58738 -10.0282,8.61303 -8.3974,2.46242 z"
       id="path5875-4-2-1"
       inkscape:connector-curvature="0"
       sodipodi:nodetypes="scss" />
    <circle
       style="opacity:1;fill:#ffffff;fill-opacity:1;stroke:none;stroke-width:2;stroke-linecap:butt;stroke-linejoin:miter;stroke-miterlimit:100;stroke-dasharray:none;stroke-dashoffset:0;stroke-opacity:1"
       id="path5829-5-0"
       cx="1374.8723"
       cy="198.8199"
       r="39.285713" />
    <circle
       style="opacity:1;fill:#000000;fill-opacity:1;stroke:none;stroke-width:2;stroke-linecap:butt;stroke-linejoin:miter;stroke-miterlimit:100;stroke-dasharray:none;stroke-dashoffset:0;stroke-opacity:1"
       id="path5858-9-1"
       cx="1391.318"
       cy="196.78322"
       r="15.714286" />
    <path
       style="fill:#ce5c00;fill-rule:evenodd;stroke:none;stroke-width:1px;stroke-linecap:butt;stroke-linejoin:miter;stroke-opacity:1"
       d="m 1383.7196,276.83247 c 13.6283,4.04329 50.5585,12.40784 69.7125,-1.17991 -18.3622,42.47994 -77.4866,28.79991 -69.7125,1.17991 z"
       id="path5947-6-2-5"
       inkscape:connector-curvature="0"
       sodipodi:nodetypes="ccc" />
    <path
       style="fill:#f57900;fill-rule:evenodd;stroke:none;stroke-width:1px;stroke-linecap:butt;stroke-linejoin:miter;stroke-opacity:1"
       d="m 1382.8297,276.01056 c 24.1518,9.35172 47.8045,6.83464 71.8011,-1.08408 -16.9161,22.5492 -57.7701,26.25102 -71.8011,1.08408 z"
       id="path5947-4-7"
       inkscape:connector-curvature="0"
       sodipodi:nodetypes="ccc" />
    <path
       style="fill:#fcaf3e;fill-opacity:1;fill-rule:evenodd;stroke:none;stroke-width:1px;stroke-linecap:butt;stroke-linejoin:miter;stroke-opacity:1"
       d="m 1347.0143,364.67279 c 3.9437,-0.9185 8.4385,14.33923 3.4465,15.8037 -9.1269,2.6775 -37.0227,11.84239 -56.8982,29.15413 -8.4026,7.31868 -27.1492,27.29198 -23.4897,53.36219 1.4214,10.12607 9.0815,11.94044 14.4228,20.62352 13.8958,22.58959 39.7859,22.95303 38.8454,29.16477 -1.2219,8.07048 -20.4463,5.83471 -31.0402,-0.97565 -3.7352,-2.40118 -20.8717,-0.349 -25.8448,3.55208 -10.3903,8.15044 -20.8103,29.34787 -24.0119,36.28464 -3.2016,6.93676 -17.0751,10.13836 -16.5415,-1.06719 0.5335,-11.20556 16.1208,-32.80953 20.2767,-41.08703 -12.5632,3.76034 -32.507,26.82602 -39.9773,34.29639 -7.4704,7.47036 -18.676,3.73518 -14.4072,-6.40318 4.2688,-10.13835 30.9352,-33.63575 38.9101,-38.03156 -10.9066,-1.13973 -28.2104,11.41545 -39.071,13.90035 -10.4161,2.38319 -13.8851,-5.8005 -7.0283,-10.5693 9.1683,-6.37635 35.4274,-17.20459 39.6962,-19.87258 4.2687,-2.66799 21.7487,-10.51087 25.6126,-20.81031 6.7447,-17.97778 11.8927,-40.34901 33.7702,-59.02493 21.8775,-18.67591 56.5531,-36.72174 63.3296,-38.30004 z"
       id="path5989-5-0"
       inkscape:connector-curvature="0"
       sodipodi:nodetypes="sssssssssscsscssssss" />
    <path
       style="fill:#3465a4;fill-rule:evenodd;stroke:none;stroke-width:1px;stroke-linecap:butt;stroke-linejoin:miter;stroke-opacity:1"
       d="m 1357.312,465.76701 c 10.672,15.6522 7.2925,49.09099 6.0474,53.00404 3.5574,2.66799 20.6325,3.02372 25.6127,-1.0672 -0.3557,-4.98025 -4.2688,-33.43879 8.1819,-43.04354 -7.4704,-13.51781 -30.9487,-12.45062 -39.842,-8.8933 z"
       id="path6006-6-8"
       inkscape:connector-curvature="0"
       sodipodi:nodetypes="ccccc" />
    <path
       style="fill:#fcaf3e;fill-opacity:1;fill-rule:evenodd;stroke:none;stroke-width:1px;stroke-linecap:butt;stroke-linejoin:miter;stroke-opacity:1"
       d="m 1365.9158,528.04743 c -3.7628,34.7796 -19.558,43.30213 -11.754,54.87662 5.8684,8.7037 27.9233,-0.8056 50.2876,7.5979 12.9243,4.8565 21.3089,0.7476 25.5387,0.2776 2.2498,4.4716 8.1237,9.1374 13.9728,5.1809 3.5094,-2.3739 -2.0589,-9.4343 -2.0589,-9.4343 0,0 6.4611,7.364 11.9409,3.5036 5.4958,-3.8718 -1.2723,-8.9722 -1.2723,-8.9722 0,0 8.1409,5.7384 12.8382,3.5035 3.9557,-1.8822 2.0634,-6.97828 -1.8281,-8.41048 0,0 15.3071,3.36048 13.2807,-7.72678 -1.3271,-7.26109 -23.0802,-2.78839 -29.1348,1.42433 -5.3171,-4.87409 -35.1223,-13.44258 -48.5681,-16.94935 -9.2754,-2.4191 -9.4338,-14.39554 -12.4116,-25.60875 -2.6183,-9.85915 -19.866,-8.18261 -20.8311,0.73741 z"
       id="path6028-0-1"
       inkscape:connector-curvature="0"
       sodipodi:nodetypes="ssscscscscscsss" />
    <path
       style="fill:#729fcf;fill-rule:evenodd;stroke:none;stroke-width:1px;stroke-linecap:butt;stroke-linejoin:miter;stroke-opacity:1"
       d="m 1363.982,527.13075 c -1.423,-1.24507 -3.0237,-9.37589 -2.7569,-13.2 6.581,2.66799 26.2352,0.97825 29.7925,-1.51187 0.8893,3.73518 -0.089,13.11107 -2.2233,14.17826 -3.9131,1.0672 -22.0554,1.77867 -24.8123,0.53361 z"
       id="path6008-5-7"
       inkscape:connector-curvature="0"
       sodipodi:nodetypes="ccccc" />
    <path
       style="fill:#729fcf;fill-rule:evenodd;stroke:none;stroke-width:1px;stroke-linecap:butt;stroke-linejoin:miter;stroke-opacity:1"
       d="m 1479.6867,481.35102 c 0.1258,-1.88655 -4.5906,-9.36986 -7.4833,-11.88527 -2.7669,6.54006 -17.8594,19.24283 -22.1356,19.99745 2.0124,3.27002 9.4328,9.81009 11.6967,9.05546 3.5215,-2.01234 16.8532,-14.3378 17.9222,-17.16764 z"
       id="path6008-0-9-6"
       inkscape:connector-curvature="0"
       sodipodi:nodetypes="ccccc" />
    <path
       style="fill:#edd400;fill-rule:evenodd;stroke:none;stroke-width:1px;stroke-linecap:butt;stroke-linejoin:miter;stroke-opacity:1"
       d="m 188.94198,828.9034 c 1.50798,-34.06188 100.10334,-84.52517 124.84061,-66.23655 74.53971,78.05156 -107.85055,201.32626 -124.84061,66.23655 z"
       id="path6045-2-3"
       inkscape:connector-curvature="0"
       sodipodi:nodetypes="ccc" />
    <path
       style="fill:#fce94f;fill-rule:evenodd;stroke:none;stroke-width:1px;stroke-linecap:butt;stroke-linejoin:miter;stroke-opacity:1"
       d="M 180.11332,918.8853 C 138.81039,844.73526 379.3333,711.61605 405.49349,832.35543 431.65369,953.09481 221.41625,993.03534 180.11332,918.8853 Z"
       id="path6045-4"
       inkscape:connector-curvature="0"
       sodipodi:nodetypes="zzz" />
    <path
       style="fill:#000000;fill-rule:evenodd;stroke:none;stroke-width:1px;stroke-linecap:butt;stroke-linejoin:miter;stroke-opacity:1"
       d="m 361.79408,848.39395 c 10.5597,-8.51544 14.60056,-21.56401 13.5329,-30.79238 5.20519,11.41393 1.62322,27.35411 -5.30566,33.7746 -4.92088,4.55978 -13.18048,1.01212 -8.22724,-2.98222 z"
       id="path5875-5-5"
       inkscape:connector-curvature="0"
       sodipodi:nodetypes="scss" />
    <path
       style="fill:#000000;fill-rule:evenodd;stroke:none;stroke-width:1px;stroke-linecap:butt;stroke-linejoin:miter;stroke-opacity:1"
       d="m 348.43089,846.73211 c 7.82352,-11.0821 8.13586,-24.73845 4.58139,-33.32148 8.13239,9.55175 9.05342,25.86346 4.14806,33.93622 -3.48379,5.73324 -12.39921,4.58354 -8.72945,-0.61474 z"
       id="path5875-4-4-8-8"
       inkscape:connector-curvature="0"
       sodipodi:nodetypes="scss" />
    <path
       style="fill:#000000;fill-rule:evenodd;stroke:none;stroke-width:1px;stroke-linecap:butt;stroke-linejoin:miter;stroke-opacity:1"
       d="m 369.74411,855.71974 c 13.028,-3.78035 21.79171,-14.25847 24.36832,-23.18392 0.39687,12.5385 -9.05945,25.86135 -17.92943,29.11027 -6.29944,2.30739 -12.54994,-4.1531 -6.43889,-5.92635 z"
       id="path5875-4-9-8"
       inkscape:connector-curvature="0"
       sodipodi:nodetypes="scss" />
    <circle
       style="opacity:1;fill:#ffffff;fill-opacity:1;stroke:none;stroke-width:2;stroke-linecap:butt;stroke-linejoin:miter;stroke-miterlimit:100;stroke-dasharray:none;stroke-dashoffset:0;stroke-opacity:1"
       id="path5829-3-6"
       cx="338.76984"
       cy="877.44086"
       r="39.285713" />
    <path
       style="fill:#5c3566;fill-rule:evenodd;stroke:none;stroke-width:1px;stroke-linecap:butt;stroke-linejoin:miter;stroke-opacity:1"
       d="m 185.51173,976.44859 c 21.65509,72.79631 -4.9796,95.32341 -4.9796,95.32341 0,0 49.65916,-8.2893 37.68362,-68.1087 -10.86505,-54.27228 -3.13128,-79.38438 8.73903,-77.93648 15.50574,1.89133 -1.23675,-22.35429 -6.96955,-24.90076 -14.64419,-6.50485 -56.61082,1.20519 -34.4735,75.62253 z"
       id="path5856-3"
       inkscape:connector-curvature="0"
       sodipodi:nodetypes="scssss" />
    <path
       style="fill:#4e9a06;fill-rule:evenodd;stroke:none;stroke-width:1px;stroke-linecap:butt;stroke-linejoin:miter;stroke-opacity:1"
       d="m 231.29196,892.14134 c -1.77183,-0.84119 -17.50497,-3.50881 -16.09387,12.94725 1.46599,17.09573 3.32263,23.33877 14.89043,24.70548 15.31872,1.80984 7.90266,-34.47219 1.20344,-37.65273 z"
       id="path5852-7"
       inkscape:connector-curvature="0"
       sodipodi:nodetypes="ssss" />
    <circle
       style="opacity:1;fill:#000000;fill-opacity:1;stroke:none;stroke-width:2;stroke-linecap:butt;stroke-linejoin:miter;stroke-miterlimit:100;stroke-dasharray:none;stroke-dashoffset:0;stroke-opacity:1"
       id="path5858-1-1"
       cx="355.60764"
       cy="876.31396"
       r="15.714286" />
    <path
       style="fill:#5c3566;fill-rule:evenodd;stroke:none;stroke-width:1px;stroke-linecap:butt;stroke-linejoin:miter;stroke-opacity:1"
       d="m 230.40045,920.36796 c -11.22024,-103.14902 98.77512,-46.03393 104.65731,-27.75522 4.67515,14.52792 -99.11187,78.73516 -104.65731,27.75522 z"
       id="path5850-4"
       inkscape:connector-curvature="0"
       sodipodi:nodetypes="sss" />
    <path
       style="fill:#8f5902;fill-opacity:1;fill-rule:evenodd;stroke:none;stroke-width:1px;stroke-linecap:butt;stroke-linejoin:miter;stroke-opacity:1"
       d="m 251.76134,1057.2361 c -5.208,-10.9736 19.6364,-17.8636 25.82017,-19.8103 6.79159,-2.1381 1.5603,-11.0716 13.96049,-12.3884 19.83348,-2.1061 11.75952,10.3132 18.17379,8.8039 3.49346,-0.822 18.47722,-1.689 18.29422,7.197 -0.18445,8.9564 -20.93539,14.9386 -26.02908,15.3788 -10.18738,0.8804 -46.50814,8.6393 -50.21959,0.819 z"
       id="path5987-9"
       inkscape:connector-curvature="0"
       sodipodi:nodetypes="sssssss" />
    <path
       style="fill:#8f5902;fill-opacity:1;fill-rule:evenodd;stroke:none;stroke-width:1px;stroke-linecap:butt;stroke-linejoin:miter;stroke-opacity:1"
       d="m 319.80132,1033.7412 c -4.19857,1.5287 -1.59639,14.8111 3.04548,15.0756 8.38503,0.4779 36.87977,-5.8111 54.29085,-3.4394 7.36066,1.0027 42.16209,9.7869 50.29692,28.4479 2.72409,6.2489 0.96441,6.0816 1.16622,12.8748 0.52504,17.6731 -13.7682,27.3516 -10.97062,30.4686 3.63471,4.0497 13.52846,-4.2323 16.93887,-11.9046 1.20244,-2.705 11.5022,-7.8336 15.7011,-7.48 8.7727,0.7386 22.33723,8.7362 26.66007,11.4297 4.32286,2.6934 13.22516,-0.6004 8.82654,-6.649 -4.39862,-6.0485 -20.9912,-12.3815 -26.33649,-15.4727 8.37663,-2.5029 27.9317,3.05 34.82848,4.4784 6.89676,1.4284 11.77352,-4.7542 5.68421,-8.841 -6.0893,-4.0868 -29.54828,-7.4198 -35.60091,-6.9503 5.66013,-4.627 19.89727,-3.9644 26.85841,-6.5548 6.67624,-2.4844 5.61395,-8.3141 0.0478,-8.4617 -7.44244,-0.1974 -26.0375,3.38 -29.39261,3.4558 -3.35512,0.076 -16.29538,2.522 -21.88836,-2.2214 -19.39354,-16.4477 -42.64267,-26.0425 -61.66854,-28.4416 -19.02589,-2.3992 -54.12876,-1.4013 -58.48745,0.1857 z"
       id="path5989-3-3"
       inkscape:connector-curvature="0"
       sodipodi:nodetypes="sssssssssscsscssssss" />
    <path
       style="fill:#8f5902;fill-opacity:1;fill-rule:evenodd;stroke:none;stroke-width:1px;stroke-linecap:butt;stroke-linejoin:miter;stroke-opacity:1"
       d="m 373.18452,1175.4675 c 21.9322,27.2536 16.7896,44.4489 30.49223,47.115 10.3041,2.0048 19.17511,-20.3144 40.93127,-30.1861 12.57293,-5.7049 16.8677,-15.8537 16.8677,-15.8537 7.76754,1.9811 17.08084,-9.9414 17.49685,-16.0984 0.1529,-2.2629 -2.38862,-5.0188 -2.38862,-5.0188 0,0 2.35113,-0.8825 2.73619,-2.4998 0.62886,-2.6411 -2.14524,-3.3411 -2.14524,-3.3411 0,0 2.22947,-0.072 2.13609,-2.1827 -0.0923,-2.087 -2.33524,-2.4134 -2.33524,-2.4134 0,0 1.74121,-1.9434 -0.55136,-3.294 -4.45035,-2.6218 -13.82654,13.3082 -16.95273,14.4337 -9.8743,3.6928 -33.20712,6.3919 -45.19442,13.4199 -8.26927,4.8482 -17.35293,-2.2508 -27.38753,-8.0741 -8.82287,-5.12 -19.33029,7.0037 -13.70527,13.9935 z"
       id="path6028-1-2"
       inkscape:connector-curvature="0"
       sodipodi:nodetypes="csscscscscscsssc" />
    <path
       style="fill:#3465a4;fill-rule:evenodd;stroke:none;stroke-width:1px;stroke-linecap:butt;stroke-linejoin:miter;stroke-opacity:1"
       d="m 352.90913,1113.3999 c 3.52157,18.6139 29.55599,39.8691 33.20333,41.7557 -0.62885,4.4019 -12.45124,16.7274 -18.86553,17.3562 -3.27003,-3.7731 -20.6263,-26.6632 -36.2218,-24.6509 -4.27617,-14.8409 13.0801,-30.6879 21.884,-34.461 z"
       id="path6006-4-6"
       inkscape:connector-curvature="0"
       sodipodi:nodetypes="ccccc" />
    <path
       style="fill:#3465a4;fill-rule:evenodd;stroke:none;stroke-width:1px;stroke-linecap:butt;stroke-linejoin:miter;stroke-opacity:1"
       d="m 265.44304,1040.4637 c 2.13809,-1.6979 10.37356,-4.2059 13.01473,-4.0172 1.50924,2.704 3.57334,9.2749 3.82488,12.9222 6.79159,1.069 24.11947,-1.6079 27.89257,-4.4377 0.62886,-1.5721 -0.20097,-8.646 -1.83598,-11.2872 2.45252,-1.2577 10.20834,-1.7016 11.59181,-0.6326 5.78543,33.958 52.43304,40.4396 37.79387,88.3226 -13.9383,45.5906 -80.28956,50.1733 -101.32253,11.8717 -22.51371,-40.9981 17.07513,-53.9775 9.04065,-92.7418 z"
       id="path5985-4"
       inkscape:connector-curvature="0"
       sodipodi:nodetypes="ccccccssc" />
    <path
       style="fill:#8f5902;fill-opacity:1;fill-rule:evenodd;stroke:none;stroke-width:1px;stroke-linecap:butt;stroke-linejoin:miter;stroke-opacity:1"
       d="m 281.04341,1033.5042 c -2.1157,-66.1962 -50.05286,-60.42642 -50.703,-113.8141 -0.85562,-70.26091 136.43298,-52.6548 138.85155,-8.06835 4.6051,84.89531 -65.24807,36.5346 -61.71998,121.16815 0.74488,17.8685 -25.90178,17.1965 -26.42857,0.7143 z"
       id="path5833-1"
       inkscape:connector-curvature="0"
       sodipodi:nodetypes="sssss" />
    <path
       style="fill:#000000;fill-rule:evenodd;stroke:none;stroke-width:1px;stroke-linecap:butt;stroke-linejoin:miter;stroke-opacity:1"
       d="m 260.76707,848.07764 c -1.85332,-13.4382 -10.95148,-23.62727 -19.40957,-27.46959 12.46376,1.42356 24.27628,12.71002 26.20612,21.95706 1.37055,6.56722 -5.92721,11.81599 -6.79655,5.51253 z"
       id="path5875-3"
       inkscape:connector-curvature="0"
       sodipodi:nodetypes="scss" />
    <path
       style="fill:#000000;fill-rule:evenodd;stroke:none;stroke-width:1px;stroke-linecap:butt;stroke-linejoin:miter;stroke-opacity:1"
       d="m 252.45438,858.67177 c -5.46316,-12.41669 -17.00417,-19.72413 -26.19121,-21.10286 12.37703,-2.04468 26.82919,5.57472 31.21797,13.93957 3.11689,5.94069 -2.46415,12.98758 -5.02676,7.16329 z"
       id="path5875-4-4-0"
       inkscape:connector-curvature="0"
       sodipodi:nodetypes="scss" />
    <path
       style="fill:#000000;fill-rule:evenodd;stroke:none;stroke-width:1px;stroke-linecap:butt;stroke-linejoin:miter;stroke-opacity:1"
       d="m 271.14269,845.04175 c 3.47655,-13.11235 -0.98441,-26.02333 -7.30432,-32.83225 10.94872,6.12348 17.49025,21.09441 15.70179,30.36983 -1.27016,6.58738 -10.02821,8.61303 -8.39747,2.46242 z"
       id="path5875-4-6"
       inkscape:connector-curvature="0"
       sodipodi:nodetypes="scss" />
    <circle
       style="opacity:1;fill:#ffffff;fill-opacity:1;stroke:none;stroke-width:2;stroke-linecap:butt;stroke-linejoin:miter;stroke-miterlimit:100;stroke-dasharray:none;stroke-dashoffset:0;stroke-opacity:1"
       id="path5829-59"
       cx="286.76898"
       cy="878.97583"
       r="39.285713" />
    <circle
       style="opacity:1;fill:#000000;fill-opacity:1;stroke:none;stroke-width:2;stroke-linecap:butt;stroke-linejoin:miter;stroke-miterlimit:100;stroke-dasharray:none;stroke-dashoffset:0;stroke-opacity:1"
       id="path5858-98"
       cx="303.21466"
       cy="876.93915"
       r="15.714286" />
    <path
       style="fill:#ce5c00;fill-rule:evenodd;stroke:none;stroke-width:1px;stroke-linecap:butt;stroke-linejoin:miter;stroke-opacity:1"
       d="m 295.61635,956.98839 c 13.62827,4.04329 50.55849,12.40784 69.71244,-1.17991 -18.36216,42.47994 -77.48654,28.79991 -69.71244,1.17991 z"
       id="path5947-6-0"
       inkscape:connector-curvature="0"
       sodipodi:nodetypes="ccc" />
    <path
       style="fill:#f57900;fill-rule:evenodd;stroke:none;stroke-width:1px;stroke-linecap:butt;stroke-linejoin:miter;stroke-opacity:1"
       d="m 294.72644,956.16648 c 24.15179,9.35172 47.80451,6.83464 71.80113,-1.08408 -16.91615,22.5492 -57.77009,26.25102 -71.80113,1.08408 z"
       id="path5947-45"
       inkscape:connector-curvature="0"
       sodipodi:nodetypes="ccc" />
    <path
       style="fill:#8f5902;fill-opacity:1;fill-rule:evenodd;stroke:none;stroke-width:1px;stroke-linecap:butt;stroke-linejoin:miter;stroke-opacity:1"
       d="m 258.91104,1044.8287 c 3.94364,-0.9185 8.43849,14.3392 3.44648,15.8037 -9.12692,2.6775 -37.02273,11.8424 -56.89827,29.1541 -8.40253,7.3187 -27.14911,27.292 -23.48965,53.3622 1.42139,10.1261 9.08152,11.9405 14.42284,20.6236 13.89576,22.5895 39.78586,22.953 38.84538,29.1647 -1.22192,8.0705 -20.44632,5.8347 -31.04022,-0.9756 -3.73518,-2.4012 -20.87168,-0.349 -25.84482,3.5521 -10.39031,8.1504 -20.81031,29.3478 -24.0119,36.2846 -3.20158,6.9368 -17.07513,10.1384 -16.54153,-1.0672 0.53359,-11.2056 16.12087,-32.8095 20.27671,-41.087 -12.56314,3.7603 -32.50693,26.826 -39.97731,34.2964 -7.47036,7.4703 -18.675908,3.7351 -14.40712,-6.4032 4.26877,-10.1384 30.93514,-33.6358 38.9101,-38.0316 -10.90659,-1.1397 -28.21039,11.4155 -39.07101,13.9004 -10.416118,2.3832 -13.885148,-5.8005 -7.028308,-10.5693 9.168268,-6.3764 35.427358,-17.2046 39.696148,-19.8726 4.26878,-2.668 21.7487,-10.5109 25.61268,-20.8103 6.74462,-17.9778 11.89264,-40.349 33.77014,-59.0249 21.87751,-18.676 56.55312,-36.7218 63.32966,-38.3001 z"
       id="path5989-2"
       inkscape:connector-curvature="0"
       sodipodi:nodetypes="sssssssssscsscssssss" />
    <path
       style="fill:#3465a4;fill-rule:evenodd;stroke:none;stroke-width:1px;stroke-linecap:butt;stroke-linejoin:miter;stroke-opacity:1"
       d="m 269.20874,1145.9229 c 10.67195,15.6522 7.2925,49.091 6.04744,53.0041 3.55732,2.668 20.63244,3.0237 25.61269,-1.0672 -0.35573,-4.9803 -4.26879,-33.4388 8.18183,-43.0436 -7.47037,-13.5178 -30.94867,-12.4506 -39.84196,-8.8933 z"
       id="path6006-47"
       inkscape:connector-curvature="0"
       sodipodi:nodetypes="ccccc" />
    <path
       style="fill:#8f5902;fill-opacity:1;fill-rule:evenodd;stroke:none;stroke-width:1px;stroke-linecap:butt;stroke-linejoin:miter;stroke-opacity:1"
       d="m 277.81256,1208.2034 c -3.76279,34.7796 -19.55805,43.3021 -11.75404,54.8765 5.86845,8.7038 27.92329,-0.8056 50.28758,7.598 12.92438,4.8564 21.3089,0.7476 25.53869,0.2776 2.24981,4.4716 8.12373,9.1374 13.9728,5.1809 3.50947,-2.3739 -2.05883,-9.4343 -2.05883,-9.4343 0,0 6.46112,7.3639 11.94084,3.5035 5.49586,-3.8718 -1.27227,-8.9722 -1.27227,-8.9722 0,0 8.14093,5.7385 12.83817,3.5035 3.95578,-1.8821 2.06345,-6.9782 -1.82807,-8.4104 0,0 15.30707,3.3604 13.28072,-7.7268 -1.32707,-7.2611 -23.08018,-2.7884 -29.13477,1.4243 -5.31718,-4.874 -35.12232,-13.4425 -48.56816,-16.9493 -9.27542,-2.4191 -9.43374,-14.3955 -12.41161,-25.6088 -2.61829,-9.8591 -19.866,-8.1826 -20.83105,0.7375 z"
       id="path6028-9"
       inkscape:connector-curvature="0"
       sodipodi:nodetypes="ssscscscscscsss" />
    <path
       style="fill:#729fcf;fill-rule:evenodd;stroke:none;stroke-width:1px;stroke-linecap:butt;stroke-linejoin:miter;stroke-opacity:1"
       d="m 275.87871,1207.2867 c -1.42293,-1.2451 -3.02372,-9.3759 -2.75692,-13.2 6.58104,2.668 26.23522,0.9782 29.79254,-1.5119 0.88933,3.7352 -0.0889,13.1111 -2.22332,14.1783 -3.91305,1.0672 -22.05538,1.7786 -24.8123,0.5336 z"
       id="path6008-02"
       inkscape:connector-curvature="0"
       sodipodi:nodetypes="ccccc" />
    <path
       style="fill:#729fcf;fill-rule:evenodd;stroke:none;stroke-width:1px;stroke-linecap:butt;stroke-linejoin:miter;stroke-opacity:1"
       d="m 391.58346,1161.5069 c 0.12577,-1.8865 -4.59061,-9.3698 -7.48332,-11.8852 -2.76694,6.54 -17.85937,19.2428 -22.13556,19.9974 2.01233,3.27 9.43273,9.8101 11.69662,9.0555 3.52157,-2.0124 16.85322,-14.3378 17.92226,-17.1677 z"
       id="path6008-0-3"
       inkscape:connector-curvature="0"
       sodipodi:nodetypes="ccccc" />
    <path
       style="fill:#edd400;fill-rule:evenodd;stroke:none;stroke-width:1px;stroke-linecap:butt;stroke-linejoin:miter;stroke-opacity:1"
       d="m 707.43845,826.06409 c 1.50798,-34.06188 100.10334,-84.52517 124.84061,-66.23654 74.53971,78.05155 -107.85055,201.32625 -124.84061,66.23654 z"
       id="path6045-2-1-7"
       inkscape:connector-curvature="0"
       sodipodi:nodetypes="ccc" />
    <path
       style="fill:#c4a000;fill-rule:evenodd;stroke:none;stroke-width:1px;stroke-linecap:butt;stroke-linejoin:miter;stroke-opacity:1"
       d="M 698.60979,916.04599 C 657.30686,841.89595 897.82977,708.77675 923.98996,829.51612 950.15016,950.2555 739.91272,990.19603 698.60979,916.04599 Z"
       id="path6045-1-0"
       inkscape:connector-curvature="0"
       sodipodi:nodetypes="zzz" />
    <path
       style="fill:#000000;fill-rule:evenodd;stroke:none;stroke-width:1px;stroke-linecap:butt;stroke-linejoin:miter;stroke-opacity:1"
       d="m 880.29055,845.55464 c 10.5597,-8.51544 14.60056,-21.56401 13.5329,-30.79238 5.20519,11.41393 1.62322,27.35411 -5.30566,33.7746 -4.92088,4.55978 -13.18048,1.01212 -8.22724,-2.98222 z"
       id="path5875-5-3-3"
       inkscape:connector-curvature="0"
       sodipodi:nodetypes="scss" />
    <path
       style="fill:#000000;fill-rule:evenodd;stroke:none;stroke-width:1px;stroke-linecap:butt;stroke-linejoin:miter;stroke-opacity:1"
       d="m 866.92736,843.8928 c 7.82352,-11.0821 8.13586,-24.73845 4.58139,-33.32148 8.13239,9.55175 9.05342,25.86346 4.14806,33.93622 -3.48379,5.73324 -12.39921,4.58354 -8.72945,-0.61474 z"
       id="path5875-4-4-8-3-4"
       inkscape:connector-curvature="0"
       sodipodi:nodetypes="scss" />
    <path
       style="fill:#000000;fill-rule:evenodd;stroke:none;stroke-width:1px;stroke-linecap:butt;stroke-linejoin:miter;stroke-opacity:1"
       d="m 888.24058,852.88043 c 13.028,-3.78035 21.79171,-14.25847 24.36832,-23.18392 0.39687,12.5385 -9.05945,25.86135 -17.92943,29.11027 -6.29944,2.30739 -12.54994,-4.1531 -6.43889,-5.92635 z"
       id="path5875-4-9-5-6"
       inkscape:connector-curvature="0"
       sodipodi:nodetypes="scss" />
    <circle
       style="opacity:1;fill:#ffffff;fill-opacity:1;stroke:none;stroke-width:2;stroke-linecap:butt;stroke-linejoin:miter;stroke-miterlimit:100;stroke-dasharray:none;stroke-dashoffset:0;stroke-opacity:1"
       id="path5829-3-8-0"
       cx="857.2663"
       cy="874.60156"
       r="39.285713" />
    <path
       style="fill:#000000;fill-rule:evenodd;stroke:none;stroke-width:1px;stroke-linecap:butt;stroke-linejoin:miter;stroke-opacity:1"
       d="m 704.0082,973.60928 c 21.65509,72.79632 -4.9796,95.32332 -4.9796,95.32332 0,0 49.65916,-8.2892 37.68362,-68.1086 -10.86505,-54.27229 -3.13128,-79.38439 8.73903,-77.93649 15.50574,1.89133 -1.23675,-22.35429 -6.96955,-24.90076 -14.64419,-6.50485 -56.61082,1.20519 -34.4735,75.62253 z"
       id="path5856-6-5"
       inkscape:connector-curvature="0"
       sodipodi:nodetypes="scssss" />
    <path
       style="fill:#4e9a06;fill-rule:evenodd;stroke:none;stroke-width:1px;stroke-linecap:butt;stroke-linejoin:miter;stroke-opacity:1"
       d="m 749.78843,889.30203 c -1.77183,-0.84119 -17.50497,-3.50881 -16.09387,12.94725 1.46599,17.09573 3.32263,23.33877 14.89043,24.70548 15.31872,1.80984 7.90266,-34.47219 1.20344,-37.65273 z"
       id="path5852-3-29"
       inkscape:connector-curvature="0"
       sodipodi:nodetypes="ssss" />
    <circle
       style="opacity:1;fill:#000000;fill-opacity:1;stroke:none;stroke-width:2;stroke-linecap:butt;stroke-linejoin:miter;stroke-miterlimit:100;stroke-dasharray:none;stroke-dashoffset:0;stroke-opacity:1"
       id="path5858-1-6-0"
       cx="874.10406"
       cy="873.47461"
       r="15.714286" />
    <path
       style="fill:#000000;fill-rule:evenodd;stroke:none;stroke-width:1px;stroke-linecap:butt;stroke-linejoin:miter;stroke-opacity:1"
       d="m 748.89692,917.52865 c -11.22024,-103.14902 98.77511,-46.03393 104.6573,-27.75522 4.67516,14.52792 -99.11186,78.73516 -104.6573,27.75522 z"
       id="path5850-2-4"
       inkscape:connector-curvature="0"
       sodipodi:nodetypes="sss" />
    <path
       style="fill:#e9b96e;fill-opacity:1;fill-rule:evenodd;stroke:none;stroke-width:1px;stroke-linecap:butt;stroke-linejoin:miter;stroke-opacity:1"
       d="m 770.25781,1054.3968 c -5.208,-10.9736 19.6364,-17.8636 25.82017,-19.8103 6.79159,-2.1381 1.5603,-11.0716 13.96049,-12.3884 19.83348,-2.1061 11.75952,10.3132 18.17379,8.8039 3.49346,-0.822 18.47721,-1.689 18.29421,7.197 -0.18445,8.9564 -20.93538,14.9386 -26.02907,15.3788 -10.18738,0.8804 -46.50814,8.6393 -50.21959,0.819 z"
       id="path5987-7-8"
       inkscape:connector-curvature="0"
       sodipodi:nodetypes="sssssss" />
    <path
       style="fill:#e9b96e;fill-opacity:1;fill-rule:evenodd;stroke:none;stroke-width:1px;stroke-linecap:butt;stroke-linejoin:miter;stroke-opacity:1"
       d="m 838.29778,1030.9019 c -4.19856,1.5287 -1.59639,14.8111 3.04548,15.0756 8.38503,0.4779 36.87978,-5.8111 54.29086,-3.4394 7.36066,1.0027 42.16209,9.7869 50.29692,28.4478 2.72409,6.249 0.96441,6.0816 1.16622,12.8749 0.52504,17.6731 -13.7682,27.3515 -10.97062,30.4686 3.63471,4.0497 13.52846,-4.2323 16.93887,-11.9046 1.20244,-2.705 11.5022,-7.8336 15.7011,-7.4801 8.7727,0.7387 22.33723,8.7363 26.66003,11.4298 4.3229,2.6934 13.22516,-0.6004 8.82656,-6.649 -4.39856,-6.0485 -20.99118,-12.3815 -26.33647,-15.4727 8.37661,-2.5029 27.93167,3.05 34.82847,4.4784 6.8967,1.4284 11.7735,-4.7542 5.6842,-8.841 -6.0893,-4.0868 -29.54826,-7.4198 -35.60089,-6.9503 5.66013,-4.627 19.89719,-3.9644 26.85839,-6.5548 6.6762,-2.4844 5.6139,-8.3142 0.048,-8.4617 -7.4425,-0.1974 -26.03748,3.38 -29.39259,3.4557 -3.35512,0.076 -16.29538,2.5221 -21.88836,-2.2213 -19.39354,-16.4477 -42.64267,-26.0425 -61.66854,-28.4417 -19.02589,-2.3991 -54.12877,-1.4012 -58.48746,0.1858 z"
       id="path5989-3-5-5"
       inkscape:connector-curvature="0"
       sodipodi:nodetypes="sssssssssscsscssssss" />
    <path
       style="fill:#e9b96e;fill-opacity:1;fill-rule:evenodd;stroke:none;stroke-width:1px;stroke-linecap:butt;stroke-linejoin:miter;stroke-opacity:1"
       d="m 891.68099,1172.6282 c 21.9322,27.2536 16.7896,44.4489 30.49223,47.115 10.3041,2.0048 19.17511,-20.3144 40.93127,-30.1861 12.57293,-5.7049 16.8677,-15.8537 16.8677,-15.8537 7.76755,1.9811 17.08085,-9.9414 17.49685,-16.0984 0.1529,-2.2629 -2.3886,-5.0189 -2.3886,-5.0189 0,0 2.3511,-0.8824 2.7362,-2.4997 0.6288,-2.6411 -2.1453,-3.3411 -2.1453,-3.3411 0,0 2.2295,-0.072 2.1361,-2.1827 -0.092,-2.087 -2.3352,-2.4134 -2.3352,-2.4134 0,0 1.7412,-1.9435 -0.5514,-3.294 -4.4503,-2.6218 -13.82652,13.3081 -16.95271,14.4337 -9.8743,3.6928 -33.20712,6.3919 -45.19442,13.4199 -8.26927,4.8482 -17.35293,-2.2508 -27.38753,-8.0741 -8.82287,-5.12 -19.33029,7.0037 -13.70527,13.9935 z"
       id="path6028-1-4-7"
       inkscape:connector-curvature="0"
       sodipodi:nodetypes="csscscscscscsssc" />
    <path
       style="fill:#3465a4;fill-rule:evenodd;stroke:none;stroke-width:1px;stroke-linecap:butt;stroke-linejoin:miter;stroke-opacity:1"
       d="m 871.4056,1110.5605 c 3.52157,18.614 29.55599,39.8692 33.20333,41.7557 -0.62885,4.402 -12.45124,16.7275 -18.86553,17.3563 -3.27003,-3.7731 -20.6263,-26.6632 -36.22181,-24.6509 -4.27617,-14.8409 13.08011,-30.6879 21.88401,-34.4611 z"
       id="path6006-4-5-1"
       inkscape:connector-curvature="0"
       sodipodi:nodetypes="ccccc" />
    <path
       style="fill:#3465a4;fill-rule:evenodd;stroke:none;stroke-width:1px;stroke-linecap:butt;stroke-linejoin:miter;stroke-opacity:1"
       d="m 783.93951,1037.6244 c 2.13809,-1.6979 10.37356,-4.2059 13.01473,-4.0172 1.50924,2.704 3.57334,9.2748 3.82488,12.9222 6.79159,1.069 24.11947,-1.6079 27.89257,-4.4377 0.62886,-1.5722 -0.20097,-8.6461 -1.83598,-11.2872 2.45252,-1.2577 10.20833,-1.7016 11.5918,-0.6326 5.78543,33.958 52.43305,40.4396 37.79388,88.3226 -13.9383,45.5906 -80.28956,50.1733 -101.32253,11.8717 -22.51371,-40.9981 17.07513,-53.9775 9.04065,-92.7418 z"
       id="path5985-1-7"
       inkscape:connector-curvature="0"
       sodipodi:nodetypes="ccccccssc" />
    <path
       style="fill:#e9b96e;fill-opacity:1;fill-rule:evenodd;stroke:none;stroke-width:1px;stroke-linecap:butt;stroke-linejoin:miter;stroke-opacity:1"
       d="m 799.53988,1030.6649 c -2.1157,-66.19621 -50.05286,-60.42643 -50.703,-113.81411 -0.85562,-70.26091 136.43298,-52.6548 138.85155,-8.06835 4.6051,84.89531 -65.24807,36.5346 -61.71998,121.16816 0.74488,17.8685 -25.90178,17.1965 -26.42857,0.7143 z"
       id="path5833-8-5"
       inkscape:connector-curvature="0"
       sodipodi:nodetypes="sssss" />
    <path
       style="fill:#000000;fill-rule:evenodd;stroke:none;stroke-width:1px;stroke-linecap:butt;stroke-linejoin:miter;stroke-opacity:1"
       d="m 779.26354,845.23833 c -1.85332,-13.4382 -10.95148,-23.62727 -19.40957,-27.46959 12.46376,1.42356 24.27628,12.71002 26.20612,21.95706 1.37055,6.56722 -5.92721,11.81599 -6.79655,5.51253 z"
       id="path5875-8-9"
       inkscape:connector-curvature="0"
       sodipodi:nodetypes="scss" />
    <path
       style="fill:#000000;fill-rule:evenodd;stroke:none;stroke-width:1px;stroke-linecap:butt;stroke-linejoin:miter;stroke-opacity:1"
       d="m 770.95085,855.83246 c -5.46316,-12.41669 -17.00417,-19.72413 -26.19121,-21.10286 12.37703,-2.04468 26.82919,5.57472 31.21797,13.93957 3.11689,5.94069 -2.46415,12.98758 -5.02676,7.16329 z"
       id="path5875-4-4-2-74"
       inkscape:connector-curvature="0"
       sodipodi:nodetypes="scss" />
    <path
       style="fill:#000000;fill-rule:evenodd;stroke:none;stroke-width:1px;stroke-linecap:butt;stroke-linejoin:miter;stroke-opacity:1"
       d="m 789.63916,842.20244 c 3.47655,-13.11235 -0.98441,-26.02333 -7.30432,-32.83225 10.94872,6.12348 17.49025,21.09441 15.70179,30.36983 -1.27016,6.58738 -10.02821,8.61303 -8.39747,2.46242 z"
       id="path5875-4-2-7"
       inkscape:connector-curvature="0"
       sodipodi:nodetypes="scss" />
    <circle
       style="opacity:1;fill:#ffffff;fill-opacity:1;stroke:none;stroke-width:2;stroke-linecap:butt;stroke-linejoin:miter;stroke-miterlimit:100;stroke-dasharray:none;stroke-dashoffset:0;stroke-opacity:1"
       id="path5829-5-9"
       cx="805.26544"
       cy="876.13647"
       r="39.285713" />
    <circle
       style="opacity:1;fill:#000000;fill-opacity:1;stroke:none;stroke-width:2;stroke-linecap:butt;stroke-linejoin:miter;stroke-miterlimit:100;stroke-dasharray:none;stroke-dashoffset:0;stroke-opacity:1"
       id="path5858-9-12"
       cx="821.71112"
       cy="874.09985"
       r="15.714286" />
    <path
       style="fill:#ce5c00;fill-rule:evenodd;stroke:none;stroke-width:1px;stroke-linecap:butt;stroke-linejoin:miter;stroke-opacity:1"
       d="m 814.11282,954.14908 c 13.62827,4.04329 50.55849,12.40784 69.71244,-1.17991 -18.36216,42.47994 -77.48654,28.79991 -69.71244,1.17991 z"
       id="path5947-6-2-4"
       inkscape:connector-curvature="0"
       sodipodi:nodetypes="ccc" />
    <path
       style="fill:#f57900;fill-rule:evenodd;stroke:none;stroke-width:1px;stroke-linecap:butt;stroke-linejoin:miter;stroke-opacity:1"
       d="m 813.22291,953.32717 c 24.15178,9.35172 47.80451,6.83464 71.80113,-1.08408 -16.91615,22.5492 -57.77009,26.25102 -71.80113,1.08408 z"
       id="path5947-4-71"
       inkscape:connector-curvature="0"
       sodipodi:nodetypes="ccc" />
    <path
       style="fill:#e9b96e;fill-opacity:1;fill-rule:evenodd;stroke:none;stroke-width:1px;stroke-linecap:butt;stroke-linejoin:miter;stroke-opacity:1"
       d="m 777.40751,1041.9894 c 3.94364,-0.9185 8.43849,14.3392 3.44648,15.8037 -9.12692,2.6775 -37.02273,11.8424 -56.89827,29.1541 -8.40253,7.3187 -27.14911,27.292 -23.48965,53.3622 1.42139,10.1261 9.08152,11.9405 14.42284,20.6235 13.89576,22.5896 39.78586,22.9531 38.84538,29.1648 -1.22192,8.0705 -20.44632,5.8347 -31.04022,-0.9756 -3.73518,-2.4012 -20.87168,-0.349 -25.84482,3.552 -10.39031,8.1505 -20.81031,29.3479 -24.0119,36.2847 -3.20158,6.9367 -17.07513,10.1383 -16.54153,-1.0672 0.53359,-11.2056 16.12087,-32.8095 20.27671,-41.087 -12.56314,3.7603 -32.50693,26.826 -39.97731,34.2964 -7.47036,7.4703 -18.67591,3.7351 -14.40712,-6.4032 4.26877,-10.1384 30.93514,-33.6358 38.9101,-38.0316 -10.90659,-1.1397 -28.21039,11.4155 -39.07101,13.9004 -10.41612,2.3832 -13.88515,-5.8005 -7.02831,-10.5693 9.16827,-6.3764 35.42736,-17.2046 39.69615,-19.8726 4.26878,-2.668 21.7487,-10.5109 25.61268,-20.8103 6.74462,-17.9778 11.89264,-40.349 33.77014,-59.025 21.87751,-18.6759 56.55312,-36.7217 63.32966,-38.3 z"
       id="path5989-5-3"
       inkscape:connector-curvature="0"
       sodipodi:nodetypes="sssssssssscsscssssss" />
    <path
       style="fill:#3465a4;fill-rule:evenodd;stroke:none;stroke-width:1px;stroke-linecap:butt;stroke-linejoin:miter;stroke-opacity:1"
       d="m 787.70521,1143.0836 c 10.67195,15.6522 7.2925,49.091 6.04744,53.0041 3.55732,2.668 20.63244,3.0237 25.61269,-1.0672 -0.35573,-4.9803 -4.26879,-33.4388 8.18183,-43.0436 -7.47037,-13.5178 -30.94867,-12.4506 -39.84196,-8.8933 z"
       id="path6006-6-86"
       inkscape:connector-curvature="0"
       sodipodi:nodetypes="ccccc" />
    <path
       style="fill:#e9b96e;fill-opacity:1;fill-rule:evenodd;stroke:none;stroke-width:1px;stroke-linecap:butt;stroke-linejoin:miter;stroke-opacity:1"
       d="m 796.30903,1205.364 c -3.76279,34.7796 -19.55805,43.3022 -11.75404,54.8766 5.86845,8.7038 27.92329,-0.8056 50.28758,7.598 12.92437,4.8564 21.3089,0.7476 25.53869,0.2776 2.24981,4.4716 8.12373,9.1374 13.9728,5.1809 3.50947,-2.3739 -2.05883,-9.4343 -2.05883,-9.4343 0,0 6.46112,7.3639 11.94084,3.5035 5.49586,-3.8718 -1.27227,-8.9722 -1.27227,-8.9722 0,0 8.14093,5.7385 12.83817,3.5035 3.95578,-1.8821 2.06345,-6.9782 -1.82807,-8.4104 0,0 15.30707,3.3604 13.28072,-7.7268 -1.32707,-7.2611 -23.08018,-2.7884 -29.13477,1.4243 -5.31718,-4.8741 -35.12233,-13.4425 -48.56816,-16.9493 -9.27542,-2.4191 -9.43374,-14.3956 -12.41161,-25.6088 -2.61829,-9.8591 -19.866,-8.1826 -20.83105,0.7374 z"
       id="path6028-0-9"
       inkscape:connector-curvature="0"
       sodipodi:nodetypes="ssscscscscscsss" />
    <path
       style="fill:#729fcf;fill-rule:evenodd;stroke:none;stroke-width:1px;stroke-linecap:butt;stroke-linejoin:miter;stroke-opacity:1"
       d="m 794.37518,1204.4474 c -1.42293,-1.2451 -3.02372,-9.3759 -2.75692,-13.2 6.58104,2.668 26.23522,0.9782 29.79254,-1.5119 0.88933,3.7352 -0.0889,13.1111 -2.22332,14.1783 -3.91305,1.0672 -22.05538,1.7786 -24.8123,0.5336 z"
       id="path6008-5-76"
       inkscape:connector-curvature="0"
       sodipodi:nodetypes="ccccc" />
    <path
       style="fill:#729fcf;fill-rule:evenodd;stroke:none;stroke-width:1px;stroke-linecap:butt;stroke-linejoin:miter;stroke-opacity:1"
       d="m 910.07993,1158.6676 c 0.12577,-1.8865 -4.59061,-9.3698 -7.48332,-11.8852 -2.76694,6.54 -17.85937,19.2428 -22.13556,19.9974 2.01233,3.27 9.43273,9.8101 11.69662,9.0555 3.52157,-2.0124 16.85322,-14.3378 17.92226,-17.1677 z"
       id="path6008-0-9-2"
       inkscape:connector-curvature="0"
       sodipodi:nodetypes="ccccc" />
    <path
       style="fill:#edd400;fill-rule:evenodd;stroke:none;stroke-width:1px;stroke-linecap:butt;stroke-linejoin:miter;stroke-opacity:1"
       d="m 1260.9572,823.21823 c 1.508,-34.06188 100.1033,-84.52516 124.8406,-66.23653 74.5397,78.05154 -107.8506,201.32624 -124.8406,66.23653 z"
       id="path6045-2-1-4-3"
       inkscape:connector-curvature="0"
       sodipodi:nodetypes="ccc" />
    <path
       style="fill:#c4a000;fill-rule:evenodd;stroke:none;stroke-width:1px;stroke-linecap:butt;stroke-linejoin:miter;stroke-opacity:1"
       d="m 1252.1285,913.20013 c -41.3029,-74.15004 199.22,-207.26923 225.3802,-86.52987 26.1602,120.73938 -184.0772,160.67991 -225.3802,86.52987 z"
       id="path6045-1-4-2"
       inkscape:connector-curvature="0"
       sodipodi:nodetypes="zzz" />
    <path
       style="fill:#000000;fill-rule:evenodd;stroke:none;stroke-width:1px;stroke-linecap:butt;stroke-linejoin:miter;stroke-opacity:1"
       d="m 1433.8092,842.70878 c 10.5597,-8.51544 14.6006,-21.56401 13.5329,-30.79238 5.2052,11.41393 1.6233,27.35411 -5.3056,33.7746 -4.9209,4.55978 -13.1805,1.01212 -8.2273,-2.98222 z"
       id="path5875-5-3-9-5"
       inkscape:connector-curvature="0"
       sodipodi:nodetypes="scss" />
    <path
       style="fill:#000000;fill-rule:evenodd;stroke:none;stroke-width:1px;stroke-linecap:butt;stroke-linejoin:miter;stroke-opacity:1"
       d="m 1420.4461,841.04694 c 7.8235,-11.0821 8.1358,-24.73845 4.5813,-33.32148 8.1324,9.55175 9.0535,25.86346 4.1481,33.93622 -3.4838,5.73324 -12.3992,4.58354 -8.7294,-0.61474 z"
       id="path5875-4-4-8-3-5-8"
       inkscape:connector-curvature="0"
       sodipodi:nodetypes="scss" />
    <path
       style="fill:#000000;fill-rule:evenodd;stroke:none;stroke-width:1px;stroke-linecap:butt;stroke-linejoin:miter;stroke-opacity:1"
       d="m 1441.7593,850.03457 c 13.028,-3.78035 21.7917,-14.25847 24.3683,-23.18392 0.3969,12.5385 -9.0595,25.86135 -17.9294,29.11027 -6.2995,2.30739 -12.55,-4.1531 -6.4389,-5.92635 z"
       id="path5875-4-9-5-7-6"
       inkscape:connector-curvature="0"
       sodipodi:nodetypes="scss" />
    <circle
       style="opacity:1;fill:#ffffff;fill-opacity:1;stroke:none;stroke-width:2;stroke-linecap:butt;stroke-linejoin:miter;stroke-miterlimit:100;stroke-dasharray:none;stroke-dashoffset:0;stroke-opacity:1"
       id="path5829-3-8-2-6"
       cx="1410.7849"
       cy="871.75568"
       r="39.285713" />
    <path
       style="fill:#ce5c00;fill-rule:evenodd;stroke:none;stroke-width:1px;stroke-linecap:butt;stroke-linejoin:miter;stroke-opacity:1"
       d="m 1257.5269,970.76342 c 21.6551,72.79628 -4.9796,95.32338 -4.9796,95.32338 0,0 49.6592,-8.2892 37.6837,-68.10864 -10.8651,-54.27231 -3.1313,-79.38441 8.739,-77.93651 15.5057,1.89133 -1.2368,-22.35429 -6.9696,-24.90076 -14.6442,-6.50485 -56.6108,1.20519 -34.4735,75.62253 z"
       id="path5856-6-0-1"
       inkscape:connector-curvature="0"
       sodipodi:nodetypes="scssss" />
    <path
       style="fill:#4e9a06;fill-rule:evenodd;stroke:none;stroke-width:1px;stroke-linecap:butt;stroke-linejoin:miter;stroke-opacity:1"
       d="m 1303.3072,886.45617 c -1.7719,-0.84119 -17.505,-3.50881 -16.0939,12.94725 1.466,17.09573 3.3226,23.33877 14.8904,24.70548 15.3187,1.80984 7.9027,-34.47219 1.2035,-37.65273 z"
       id="path5852-3-2-1"
       inkscape:connector-curvature="0"
       sodipodi:nodetypes="ssss" />
    <circle
       style="opacity:1;fill:#000000;fill-opacity:1;stroke:none;stroke-width:2;stroke-linecap:butt;stroke-linejoin:miter;stroke-miterlimit:100;stroke-dasharray:none;stroke-dashoffset:0;stroke-opacity:1"
       id="path5858-1-6-2-4"
       cx="1427.6227"
       cy="870.62878"
       r="15.714286" />
    <path
       style="fill:#ce5c00;fill-rule:evenodd;stroke:none;stroke-width:1px;stroke-linecap:butt;stroke-linejoin:miter;stroke-opacity:1"
       d="m 1302.4157,914.68279 c -11.2203,-103.14902 98.775,-46.03393 104.6572,-27.75522 4.6752,14.52792 -99.1118,78.73516 -104.6572,27.75522 z"
       id="path5850-2-6-6"
       inkscape:connector-curvature="0"
       sodipodi:nodetypes="sss" />
    <path
       style="fill:#fcaf3e;fill-opacity:1;fill-rule:evenodd;stroke:none;stroke-width:1px;stroke-linecap:butt;stroke-linejoin:miter;stroke-opacity:1"
       d="m 1323.7765,1051.551 c -5.208,-10.9737 19.6364,-17.8636 25.8202,-19.8104 6.7916,-2.1381 1.5603,-11.0716 13.9605,-12.3883 19.8334,-2.1062 11.7595,10.3131 18.1738,8.8039 3.4934,-0.822 18.4772,-1.6891 18.2942,7.1969 -0.1845,8.9564 -20.9354,14.9386 -26.0291,15.3788 -10.1874,0.8804 -46.5081,8.6394 -50.2196,0.8191 z"
       id="path5987-7-7-8"
       inkscape:connector-curvature="0"
       sodipodi:nodetypes="sssssss" />
    <path
       style="fill:#fcaf3e;fill-opacity:1;fill-rule:evenodd;stroke:none;stroke-width:1px;stroke-linecap:butt;stroke-linejoin:miter;stroke-opacity:1"
       d="m 1391.8165,1028.0561 c -4.1986,1.5286 -1.5964,14.811 3.0455,15.0755 8.385,0.4779 36.8797,-5.8111 54.2908,-3.4393 7.3607,1.0026 42.1621,9.7868 50.2969,28.4478 2.7241,6.2489 0.9644,6.0816 1.1663,12.8748 0.525,17.6731 -13.7682,27.3516 -10.9707,30.4686 3.6347,4.0497 13.5285,-4.2323 16.9389,-11.9045 1.2024,-2.7051 11.5022,-7.8336 15.7011,-7.4801 8.7727,0.7386 22.3372,8.7363 26.66,11.4297 4.3229,2.6935 13.2252,-0.6004 8.8266,-6.6489 -4.3986,-6.0486 -20.9912,-12.3815 -26.3365,-15.4728 8.3766,-2.5029 27.9317,3.05 34.8285,4.4784 6.8967,1.4284 11.7735,-4.7542 5.6842,-8.841 -6.0893,-4.0868 -29.5483,-7.4198 -35.6009,-6.9503 5.6601,-4.6269 19.8972,-3.9643 26.8584,-6.5548 6.6762,-2.4844 5.6139,-8.3141 0.048,-8.4617 -7.4425,-0.1973 -26.0375,3.38 -29.3926,3.4558 -3.3551,0.076 -16.2954,2.5221 -21.8884,-2.2214 -19.3935,-16.4477 -42.6426,-26.0425 -61.6685,-28.4416 -19.0259,-2.3992 -54.1288,-1.4012 -58.4875,0.1858 z"
       id="path5989-3-5-9-8"
       inkscape:connector-curvature="0"
       sodipodi:nodetypes="sssssssssscsscssssss" />
    <path
       style="fill:#fcaf3e;fill-opacity:1;fill-rule:evenodd;stroke:none;stroke-width:1px;stroke-linecap:butt;stroke-linejoin:miter;stroke-opacity:1"
       d="m 1445.1997,1169.7824 c 21.9322,27.2535 16.7896,44.4488 30.4922,47.1149 10.3041,2.0049 19.1751,-20.3144 40.9313,-30.1861 12.5729,-5.7049 16.8677,-15.8536 16.8677,-15.8536 7.7675,1.981 17.0808,-9.9415 17.4968,-16.0985 0.1529,-2.2629 -2.3886,-5.0188 -2.3886,-5.0188 0,0 2.3511,-0.8825 2.7362,-2.4997 0.6288,-2.6412 -2.1453,-3.3412 -2.1453,-3.3412 0,0 2.2295,-0.072 2.1361,-2.1826 -0.092,-2.0871 -2.3352,-2.4135 -2.3352,-2.4135 0,0 1.7412,-1.9434 -0.5514,-3.294 -4.4503,-2.6217 -13.8265,13.3082 -16.9527,14.4338 -9.8743,3.6927 -33.2071,6.3919 -45.1944,13.4199 -8.2693,4.8481 -17.3529,-2.2509 -27.3875,-8.0741 -8.8229,-5.1201 -19.3303,7.0037 -13.7053,13.9935 z"
       id="path6028-1-4-8-3"
       inkscape:connector-curvature="0"
       sodipodi:nodetypes="csscscscscscsssc" />
    <path
       style="fill:#3465a4;fill-rule:evenodd;stroke:none;stroke-width:1px;stroke-linecap:butt;stroke-linejoin:miter;stroke-opacity:1"
       d="m 1424.9243,1107.7147 c 3.5216,18.614 29.556,39.8691 33.2033,41.7557 -0.6288,4.4019 -12.4512,16.7274 -18.8655,17.3563 -3.27,-3.7731 -20.6263,-26.6633 -36.2218,-24.651 -4.2762,-14.8409 13.0801,-30.6879 21.884,-34.461 z"
       id="path6006-4-5-5-6"
       inkscape:connector-curvature="0"
       sodipodi:nodetypes="ccccc" />
    <path
       style="fill:#3465a4;fill-rule:evenodd;stroke:none;stroke-width:1px;stroke-linecap:butt;stroke-linejoin:miter;stroke-opacity:1"
       d="m 1337.4582,1034.7785 c 2.1381,-1.6979 10.3736,-4.2059 13.0147,-4.0172 1.5093,2.7041 3.5734,9.2749 3.8249,12.9222 6.7916,1.0691 24.1195,-1.6079 27.8926,-4.4377 0.6288,-1.5721 -0.201,-8.646 -1.836,-11.2872 2.4525,-1.2577 10.2083,-1.7016 11.5918,-0.6325 5.7854,33.9579 52.4331,40.4395 37.7939,88.3226 -13.9383,45.5906 -80.2896,50.1733 -101.3225,11.8716 -22.5137,-40.9981 17.0751,-53.9775 9.0406,-92.7418 z"
       id="path5985-1-6-7"
       inkscape:connector-curvature="0"
       sodipodi:nodetypes="ccccccssc" />
    <path
       style="fill:#fcaf3e;fill-opacity:1;fill-rule:evenodd;stroke:none;stroke-width:1px;stroke-linecap:butt;stroke-linejoin:miter;stroke-opacity:1"
       d="m 1353.0586,1027.8191 c -2.1157,-66.19627 -50.0528,-60.42649 -50.703,-113.81417 -0.8556,-70.26091 136.433,-52.6548 138.8515,-8.06835 4.6051,84.89531 -65.248,36.5346 -61.72,121.16822 0.7449,17.8685 -25.9017,17.1964 -26.4285,0.7143 z"
       id="path5833-8-3-2"
       inkscape:connector-curvature="0"
       sodipodi:nodetypes="sssss" />
    <path
       style="fill:#000000;fill-rule:evenodd;stroke:none;stroke-width:1px;stroke-linecap:butt;stroke-linejoin:miter;stroke-opacity:1"
       d="m 1332.7823,842.39247 c -1.8533,-13.4382 -10.9515,-23.62727 -19.4096,-27.46959 12.4638,1.42356 24.2762,12.71002 26.2061,21.95706 1.3705,6.56722 -5.9272,11.81599 -6.7965,5.51253 z"
       id="path5875-8-2-0"
       inkscape:connector-curvature="0"
       sodipodi:nodetypes="scss" />
    <path
       style="fill:#000000;fill-rule:evenodd;stroke:none;stroke-width:1px;stroke-linecap:butt;stroke-linejoin:miter;stroke-opacity:1"
       d="m 1324.4696,852.9866 c -5.4632,-12.41669 -17.0042,-19.72413 -26.1912,-21.10286 12.377,-2.04468 26.8292,5.57472 31.2179,13.93957 3.1169,5.94069 -2.4641,12.98758 -5.0267,7.16329 z"
       id="path5875-4-4-2-7-6"
       inkscape:connector-curvature="0"
       sodipodi:nodetypes="scss" />
    <path
       style="fill:#000000;fill-rule:evenodd;stroke:none;stroke-width:1px;stroke-linecap:butt;stroke-linejoin:miter;stroke-opacity:1"
       d="m 1343.1579,839.35658 c 3.4765,-13.11235 -0.9845,-26.02333 -7.3043,-32.83225 10.9487,6.12348 17.4902,21.09441 15.7017,30.36983 -1.2701,6.58738 -10.0282,8.61303 -8.3974,2.46242 z"
       id="path5875-4-2-1-4"
       inkscape:connector-curvature="0"
       sodipodi:nodetypes="scss" />
    <circle
       style="opacity:1;fill:#ffffff;fill-opacity:1;stroke:none;stroke-width:2;stroke-linecap:butt;stroke-linejoin:miter;stroke-miterlimit:100;stroke-dasharray:none;stroke-dashoffset:0;stroke-opacity:1"
       id="path5829-5-0-3"
       cx="1358.7841"
       cy="873.29065"
       r="39.285713" />
    <circle
       style="opacity:1;fill:#000000;fill-opacity:1;stroke:none;stroke-width:2;stroke-linecap:butt;stroke-linejoin:miter;stroke-miterlimit:100;stroke-dasharray:none;stroke-dashoffset:0;stroke-opacity:1"
       id="path5858-9-1-0"
       cx="1375.2297"
       cy="871.25397"
       r="15.714286" />
    <path
       style="fill:#ce5c00;fill-rule:evenodd;stroke:none;stroke-width:1px;stroke-linecap:butt;stroke-linejoin:miter;stroke-opacity:1"
       d="m 1367.6315,951.30322 c 13.6283,4.04329 50.5585,12.40784 69.7125,-1.17991 -18.3622,42.47994 -77.4866,28.79991 -69.7125,1.17991 z"
       id="path5947-6-2-5-8"
       inkscape:connector-curvature="0"
       sodipodi:nodetypes="ccc" />
    <path
       style="fill:#f57900;fill-rule:evenodd;stroke:none;stroke-width:1px;stroke-linecap:butt;stroke-linejoin:miter;stroke-opacity:1"
       d="m 1366.7416,950.48131 c 24.1518,9.35172 47.8045,6.83464 71.8011,-1.08408 -16.9161,22.5492 -57.7701,26.25102 -71.8011,1.08408 z"
       id="path5947-4-7-1"
       inkscape:connector-curvature="0"
       sodipodi:nodetypes="ccc" />
    <path
       style="fill:#fcaf3e;fill-opacity:1;fill-rule:evenodd;stroke:none;stroke-width:1px;stroke-linecap:butt;stroke-linejoin:miter;stroke-opacity:1"
       d="m 1330.9262,1039.1435 c 3.9437,-0.9185 8.4385,14.3393 3.4465,15.8037 -9.1269,2.6775 -37.0227,11.8424 -56.8982,29.1542 -8.4026,7.3187 -27.1492,27.292 -23.4897,53.3622 1.4214,10.126 9.0815,11.9404 14.4228,20.6235 13.8958,22.5896 39.7859,22.953 38.8454,29.1648 -1.2219,8.0704 -20.4463,5.8347 -31.0402,-0.9757 -3.7352,-2.4012 -20.8717,-0.349 -25.8448,3.5521 -10.3903,8.1504 -20.8103,29.3479 -24.0119,36.2846 -3.2016,6.9368 -17.0751,10.1384 -16.5415,-1.0672 0.5335,-11.2055 16.1208,-32.8095 20.2767,-41.087 -12.5632,3.7603 -32.507,26.826 -39.9773,34.2964 -7.4704,7.4704 -18.676,3.7352 -14.4072,-6.4032 4.2688,-10.1383 30.9352,-33.6357 38.9101,-38.0315 -10.9066,-1.1398 -28.2104,11.4154 -39.071,13.9003 -10.4161,2.3832 -13.8851,-5.8005 -7.0283,-10.5693 9.1683,-6.3763 35.4274,-17.2046 39.6962,-19.8726 4.2687,-2.668 21.7487,-10.5108 25.6126,-20.8103 6.7447,-17.9778 11.8927,-40.349 33.7702,-59.0249 21.8775,-18.6759 56.5531,-36.7218 63.3296,-38.3001 z"
       id="path5989-5-0-4"
       inkscape:connector-curvature="0"
       sodipodi:nodetypes="sssssssssscsscssssss" />
    <path
       style="fill:#3465a4;fill-rule:evenodd;stroke:none;stroke-width:1px;stroke-linecap:butt;stroke-linejoin:miter;stroke-opacity:1"
       d="m 1341.2239,1140.2378 c 10.672,15.6522 7.2925,49.091 6.0474,53.004 3.5574,2.668 20.6325,3.0237 25.6127,-1.0672 -0.3557,-4.9802 -4.2688,-33.4388 8.1819,-43.0435 -7.4704,-13.5178 -30.9487,-12.4507 -39.842,-8.8933 z"
       id="path6006-6-8-3"
       inkscape:connector-curvature="0"
       sodipodi:nodetypes="ccccc" />
    <path
       style="fill:#fcaf3e;fill-opacity:1;fill-rule:evenodd;stroke:none;stroke-width:1px;stroke-linecap:butt;stroke-linejoin:miter;stroke-opacity:1"
       d="m 1349.8277,1202.5182 c -3.7628,34.7796 -19.558,43.3021 -11.754,54.8766 5.8684,8.7037 27.9233,-0.8056 50.2876,7.5979 12.9243,4.8565 21.3089,0.7476 25.5387,0.2776 2.2498,4.4716 8.1237,9.1374 13.9728,5.1809 3.5094,-2.3739 -2.0589,-9.4343 -2.0589,-9.4343 0,0 6.4611,7.364 11.9409,3.5036 5.4958,-3.8718 -1.2723,-8.9722 -1.2723,-8.9722 0,0 8.1409,5.7384 12.8382,3.5035 3.9557,-1.8822 2.0634,-6.9783 -1.8281,-8.4105 0,0 15.3071,3.3605 13.2807,-7.7268 -1.3271,-7.261 -23.0802,-2.7883 -29.1348,1.4244 -5.3171,-4.8741 -35.1223,-13.4426 -48.5681,-16.9494 -9.2754,-2.4191 -9.4338,-14.3955 -12.4116,-25.6087 -2.6183,-9.8592 -19.866,-8.1826 -20.8311,0.7374 z"
       id="path6028-0-1-1"
       inkscape:connector-curvature="0"
       sodipodi:nodetypes="ssscscscscscsss" />
    <path
       style="fill:#729fcf;fill-rule:evenodd;stroke:none;stroke-width:1px;stroke-linecap:butt;stroke-linejoin:miter;stroke-opacity:1"
       d="m 1347.8939,1201.6015 c -1.423,-1.2451 -3.0237,-9.3759 -2.7569,-13.2 6.581,2.668 26.2352,0.9783 29.7925,-1.5119 0.8893,3.7352 -0.089,13.1111 -2.2233,14.1783 -3.9131,1.0672 -22.0554,1.7787 -24.8123,0.5336 z"
       id="path6008-5-7-0"
       inkscape:connector-curvature="0"
       sodipodi:nodetypes="ccccc" />
    <path
       style="fill:#729fcf;fill-rule:evenodd;stroke:none;stroke-width:1px;stroke-linecap:butt;stroke-linejoin:miter;stroke-opacity:1"
       d="m 1463.5986,1155.8218 c 0.1258,-1.8866 -4.5906,-9.3699 -7.4833,-11.8853 -2.7669,6.5401 -17.8594,19.2428 -22.1356,19.9975 2.0124,3.27 9.4328,9.81 11.6967,9.0554 3.5215,-2.0123 16.8532,-14.3378 17.9222,-17.1676 z"
       id="path6008-0-9-6-2"
       inkscape:connector-curvature="0"
       sodipodi:nodetypes="ccccc" />
  </g>
</svg>
