<?xml version="1.0" encoding="UTF-8" standalone="no"?>
<!-- Created with Inkscape (http://www.inkscape.org/) -->

<svg
   xmlns:dc="http://purl.org/dc/elements/1.1/"
   xmlns:cc="http://creativecommons.org/ns#"
   xmlns:rdf="http://www.w3.org/1999/02/22-rdf-syntax-ns#"
   xmlns:svg="http://www.w3.org/2000/svg"
   xmlns="http://www.w3.org/2000/svg"
   xmlns:sodipodi="http://sodipodi.sourceforge.net/DTD/sodipodi-0.dtd"
   xmlns:inkscape="http://www.inkscape.org/namespaces/inkscape"
   width="64px"
   height="64px"
   id="svg3755"
   version="1.1"
   inkscape:version="0.48.5 r10040"
   sodipodi:docname="New document 3">
  <defs
     id="defs3757" />
  <sodipodi:namedview
     id="base"
     pagecolor="#ffffff"
     bordercolor="#666666"
     borderopacity="1.0"
     inkscape:pageopacity="0.0"
     inkscape:pageshadow="2"
     inkscape:zoom="3.8890873"
     inkscape:cx="25.095101"
     inkscape:cy="41.757117"
     inkscape:current-layer="layer1"
     showgrid="true"
     inkscape:document-units="px"
     inkscape:grid-bbox="true"
     inkscape:window-width="843"
     inkscape:window-height="513"
     inkscape:window-x="835"
     inkscape:window-y="16"
     inkscape:window-maximized="0">
    <inkscape:grid
       type="xygrid"
       id="grid3763" />
  </sodipodi:namedview>
  <metadata
     id="metadata3760">
    <rdf:RDF>
      <cc:Work
         rdf:about="">
        <dc:format>image/svg+xml</dc:format>
        <dc:type
           rdf:resource="http://purl.org/dc/dcmitype/StillImage" />
        <dc:title></dc:title>
      </cc:Work>
    </rdf:RDF>
  </metadata>
  <g
     id="layer1"
     inkscape:label="Layer 1"
     inkscape:groupmode="layer">
    <path
       style="fill:#2e3436;stroke:none;stroke-width:1px;stroke-linecap:butt;stroke-linejoin:miter;stroke-opacity:1"
       d="m 28,12 c -8,0 -8,8 -8,8 l 8,0 c 0,0 0,4 -2,4 -2,0 2,0 2,0 0,0 0,4 -2,4 -2,0 2,0 2,0 0,0 0,4 -2,4 -2,0 2,0 2,0 0,0 0,4 -2,4 -2,0 2,0 2,0 0,0 0,4 -2,4 -2,0 2,0 2,0 0,0 0,4 -2,4 -2,0 2,0 2,0 l 2,8 2,-8 c 0,0 0,-2 2,-2 2,0 -2,0 -2,0 0,0 0,-4 2,-4 2,0 -2,0 -2,0 0,0 0,-4 2,-4 2,0 -2,0 -2,0 0,0 0,-4 2,-4 2,0 -2,0 -2,0 0,0 0,-4 2,-4 2,0 -2,0 -2,0 0,0 0,-4 2,-4 2,0 -2,0 -2,0 l 0,-2 8,0 c 0,0 0,-8 -8,-8 l 0,4 -4,0 z"
       id="path3765"
       inkscape:connector-curvature="0"
       sodipodi:nodetypes="cccscscscscscscccscscscscscsccccccc" />
  </g>
</svg>
