<?xml version="1.0" encoding="UTF-8" standalone="no"?>
<!-- Created with Inkscape (http://www.inkscape.org/) -->

<svg
   xmlns:dc="http://purl.org/dc/elements/1.1/"
   xmlns:cc="http://creativecommons.org/ns#"
   xmlns:rdf="http://www.w3.org/1999/02/22-rdf-syntax-ns#"
   xmlns:svg="http://www.w3.org/2000/svg"
   xmlns="http://www.w3.org/2000/svg"
   xmlns:sodipodi="http://sodipodi.sourceforge.net/DTD/sodipodi-0.dtd"
   xmlns:inkscape="http://www.inkscape.org/namespaces/inkscape"
   width="468px"
   height="60px"
   id="svg2985"
   version="1.1"
   inkscape:version="0.48.3 r9882"
   sodipodi:docname="New document 2">
  <defs
     id="defs2987" />
  <sodipodi:namedview
     id="base"
     pagecolor="#ffffff"
     bordercolor="#666666"
     borderopacity="1.0"
     inkscape:pageopacity="0.0"
     inkscape:pageshadow="2"
     inkscape:zoom="1.6970563"
     inkscape:cx="216.08929"
     inkscape:cy="13.833754"
     inkscape:document-units="px"
     inkscape:current-layer="layer1"
     showgrid="false"
     inkscape:window-width="1364"
     inkscape:window-height="751"
     inkscape:window-x="0"
     inkscape:window-y="15"
     inkscape:window-maximized="0" />
  <metadata
     id="metadata2990">
    <rdf:RDF>
      <cc:Work
         rdf:about="">
        <dc:format>image/svg+xml</dc:format>
        <dc:type
           rdf:resource="http://purl.org/dc/dcmitype/StillImage" />
        <dc:title></dc:title>
      </cc:Work>
    </rdf:RDF>
  </metadata>
  <g
     id="layer1"
     inkscape:label="Layer 1"
     inkscape:groupmode="layer">
    <rect
       style="fill:#927c4d;fill-opacity:1;fill-rule:nonzero;stroke:none"
       id="rect3005"
       width="468"
       height="60"
       x="0"
       y="0" />
    <g
       style="font-size:64px;font-style:normal;font-variant:normal;font-weight:normal;font-stretch:normal;line-height:125%;letter-spacing:0px;word-spacing:0px;fill:#951b0a;fill-opacity:1;stroke:none;font-family:Serpentine-Bold;-inkscape-font-specification:Serpentine-Bold"
       id="text3001">
      <path
         d="m 77.294789,17.648 c -1.024041,-0.426634 -2.005374,-0.746634 -2.944,-0.96 -0.938705,-0.255966 -2.069371,-0.383966 -3.392,-0.384 l -14.528,0 c -1.237353,3.4e-5 -2.048019,0.1067 -2.432,0.32 -0.384019,0.213367 -0.576018,0.704033 -0.576,1.472 l 0,2.304 c -1.8e-5,0.768029 0.191981,1.258695 0.576,1.472 0.383981,0.213361 1.194647,0.320028 2.432,0.32 l 11.072,0 c 3.455964,2.8e-5 6.015962,0.640027 7.68,1.92 1.706625,1.280025 2.559957,3.392023 2.56,6.336 l 0,9.984 c -4.3e-5,3.41334 -0.725375,5.952004 -2.176,7.616 -1.450706,1.621334 -3.98937,2.432 -7.616,2.432 l -28.16,0 -1.344,-8.32 c 0.938662,0.469341 1.877328,0.85334 2.816,1.152 0.93866,0.256006 2.047992,0.384006 3.328,0.384 l 15.104,0 c 1.194641,6e-6 1.983973,-0.10666 2.368,-0.32 0.383973,-0.213326 0.575972,-0.703993 0.576,-1.472 l 0,-2.816 c -2.8e-5,-0.725322 -0.192027,-1.194655 -0.576,-1.408 -0.384027,-0.255987 -1.173359,-0.383987 -2.368,-0.384 l -12.736,0 c -3.200009,1.3e-5 -5.440006,-0.639987 -6.72,-1.92 -1.280004,-1.279984 -1.920003,-3.605315 -1.92,-6.976 l 0,-9.152 c -3e-6,-3.157299 0.746663,-5.567964 2.24,-7.232 1.493326,-1.66396 3.626658,-2.4959595 6.4,-2.4960005 l 28.992,0 1.344,8.1280005"
         style=""
         id="path3776" />
      <path
         d="m 120.36743,9.5199995 20.928,0 c -0.42673,0.8533735 -0.76806,1.7920395 -1.024,2.8160005 -0.21339,1.024037 -0.32006,2.432035 -0.32,4.224 l 0,26.88 c -6e-5,1.920005 0.0853,3.328003 0.256,4.224 0.21327,0.896001 0.57594,1.834667 1.088,2.816 l -18.24,0 c 0.42662,-0.853333 0.74662,-1.813332 0.96,-2.88 0.21329,-1.066663 0.31996,-2.453328 0.32,-4.16 l 0,-25.216 -11.456,32.256 -10.816,0 -11.008001,-32.256 -0.128,24.896 c -1e-5,2.304005 0.08532,3.861336 0.256,4.672 0.170656,0.810668 0.597322,1.706667 1.28,2.688 l -9.856,0 c 0.682664,-0.981333 1.10933,-1.877332 1.28,-2.688 0.170663,-0.810664 0.255997,-2.367995 0.256,-4.672 l 0,-26.24 c -3e-6,-2.303965 -0.08534,-3.861296 -0.256,-4.672 -0.17067,-0.810628 -0.597336,-1.706627 -1.28,-2.6880005 l 21.504001,0 7.808,23.2320005 8.448,-23.2320005"
         style=""
         id="path3778" />
      <path
         d="m 146.15863,21.552 c 0,-4.266634 0.85333,-7.338631 2.56,-9.216 1.74933,-1.877294 4.35199,-2.8159595 7.808,-2.8160005 l 23.424,0 c 3.45596,4.1e-5 6.03729,0.9387065 7.744,2.8160005 1.74929,1.834703 2.62396,4.906699 2.624,9.216 l 0,16.896 c -4e-5,4.266674 -0.87471,7.338671 -2.624,9.216 -1.70671,1.877334 -4.28804,2.816 -7.744,2.816 l -23.424,0 c -3.45601,0 -6.05867,-0.917333 -7.808,-2.752 -1.70667,-1.877329 -2.56,-4.970659 -2.56,-9.28 l 0,-16.896 m 15.616,19.52 c -2e-5,1.749341 1.02398,2.624006 3.072,2.624 l 6.784,0 c 2.04797,6e-6 3.07197,-0.874659 3.072,-2.624 l 0,-22.144 c -3e-5,-1.7493 -1.02403,-2.623966 -3.072,-2.624 l -6.784,0 c -2.04802,3.4e-5 -3.07202,0.8747 -3.072,2.624 l 0,22.144"
         style=""
         id="path3780" />
      <path
         d="m 240.4956,25.904 c -0.85338,1.365356 -1.38671,2.410688 -1.6,3.136 -0.21338,0.725354 -0.32004,1.813353 -0.32,3.264 l 0,10.112 c -4e-5,2.602672 0.0853,4.309337 0.256,5.12 0.17062,0.768002 0.63995,1.749334 1.408,2.944 l -13.76,0 -0.512,-3.776 c -0.51203,1.408002 -1.10936,2.389334 -1.792,2.944 -0.6827,0.554666 -2.02669,0.832 -4.032,0.832 l -13.824,0 c -3.45601,0 -6.05867,-0.917333 -7.808,-2.752 -1.70667,-1.877329 -2.56,-4.970659 -2.56,-9.28 l 0,-16.896 c 0,-4.266634 0.85333,-7.338631 2.56,-9.216 1.74933,-1.877294 4.35199,-2.8159595 7.808,-2.8160005 l 29.952,0 1.216,7.8720005 c -0.98138,-0.3413 -1.94137,-0.5973 -2.88,-0.768 -0.89604,-0.2133 -2.02671,-0.319966 -3.392,-0.32 l -16.576,0 c -2.04802,3.4e-5 -3.07202,0.8747 -3.072,2.624 l 0,22.144 c -2e-5,1.749341 1.02398,2.624006 3.072,2.624 l 5.248,0 c 2.04797,6e-6 3.07197,-0.874659 3.072,-2.624 l 0,-8.384 -5.824,0 c -0.59736,1.7e-5 -1.13069,0.106684 -1.6,0.32 -0.42669,0.170684 -0.76802,0.320017 -1.024,0.448 l 0,-7.552 25.984,0"
         style=""
         id="path3782" />
      <path
         d="m 272.43177,25.904 0,-9.344 c -3e-5,-1.877298 -0.10669,-3.263963 -0.32,-4.16 -0.17069,-0.938628 -0.49069,-1.898627 -0.96,-2.8800005 l 18.176,0 c -0.42671,0.8533735 -0.74671,1.8133725 -0.96,2.8800005 -0.21338,1.066703 -0.32004,2.453369 -0.32,4.16 l 0,26.88 c -4e-5,1.877338 0.0853,3.285337 0.256,4.224 0.21329,0.896001 0.55462,1.834667 1.024,2.816 l -18.176,0 c 0.42664,-0.853333 0.74664,-1.813332 0.96,-2.88 0.21331,-1.066663 0.31997,-2.453328 0.32,-4.16 l 0,-10.752 -11.648,0 0,10.752 c -2e-5,1.877338 0.0853,3.285337 0.256,4.224 0.21332,0.896001 0.55465,1.834667 1.024,2.816 l -18.176,0 c 0.42667,-0.853333 0.74667,-1.813332 0.96,-2.88 0.21333,-1.066663 0.32,-2.453328 0.32,-4.16 l 0,-26.88 c 0,-1.877298 -0.10667,-3.263963 -0.32,-4.16 -0.17067,-0.938628 -0.49067,-1.898627 -0.96,-2.8800005 l 18.176,0 c -0.42668,0.8533735 -0.74668,1.8133725 -0.96,2.8800005 -0.21335,1.066703 -0.32002,2.453369 -0.32,4.16 l 0,9.344 11.648,0"
         style=""
         id="path3784" />
      <path
         d="m 324.14474,43.696 c 1.70663,6e-6 2.98663,-0.06399 3.84,-0.192 0.8533,-0.17066 1.91996,-0.469326 3.2,-0.896 l -1.408,7.872 -36.096,0 c 0.42667,-0.853333 0.74667,-1.813332 0.96,-2.88 0.21333,-1.066663 0.32,-2.453328 0.32,-4.16 l 0,-26.88 c 0,-1.877298 -0.10667,-3.263963 -0.32,-4.16 -0.17067,-0.938628 -0.49067,-1.898627 -0.96,-2.8800005 l 35.456,0 1.28,7.8720005 c -1.02404,-0.298634 -2.06937,-0.554633 -3.136,-0.768 -1.0667,-0.2133 -2.38937,-0.319966 -3.968,-0.32 l -12.736,0 0,9.6 11.136,0 c 1.66397,2.4e-5 2.9013,-0.06398 3.712,-0.192 0.8533,-0.170642 1.96263,-0.469309 3.328,-0.896 l 0,8.96 c -0.98137,-0.29865 -2.0267,-0.55465 -3.136,-0.768 -1.0667,-0.213316 -2.36803,-0.319983 -3.904,-0.32 l -11.136,0 0,11.008 13.568,0"
         style=""
         id="path3786" />
      <path
         d="m 359.98505,32.688 -5.824,-13.824 -6.272,13.824 12.096,0 m -15.296,6.784 -2.752,5.632 c -0.38401,0.768004 -0.57601,1.57867 -0.576,2.432 -10e-6,0.682668 0.0427,1.173335 0.128,1.472 0.0853,0.256001 0.34133,0.746667 0.768,1.472 l -11.584,0 c 1.23734,-1.578666 2.15467,-2.837331 2.752,-3.776 0.59734,-0.938662 1.23733,-2.154661 1.92,-3.648 l 14.912,-31.232 -1.792,-2.3040005 18.496,0 14.592,35.3280005 c 0.89595,2.133336 2.09062,4.010668 3.584,5.632 l -20.544,0 c 0.3413,-0.64 0.57597,-1.151999 0.704,-1.536 0.12797,-0.426665 0.19197,-0.810665 0.192,-1.152 -3e-5,-1.151997 -0.19203,-2.175996 -0.576,-3.072 l -2.24,-5.248 -17.984,0"
         style=""
         id="path3788" />
      <path
         d="m 403.05721,29.104 8.192,0 c 1.15197,2.1e-5 1.89864,-0.213312 2.24,-0.64 0.38397,-0.469311 0.57597,-1.42931 0.576,-2.88 l 0,-5.76 c -3e-5,-1.450635 -0.19203,-2.389301 -0.576,-2.816 -0.34136,-0.4693 -1.08803,-0.703966 -2.24,-0.704 l -8.192,0 0,12.8 m 0,14.336 c -2e-5,1.877338 0.0853,3.285337 0.256,4.224 0.21331,0.896001 0.55465,1.834667 1.024,2.816 l -18.176,0 c 0.42666,-0.853333 0.74666,-1.813332 0.96,-2.88 0.21333,-1.066663 0.32,-2.453328 0.32,-4.16 l 0,-26.88 c 0,-1.877298 -0.128,-3.30663 -0.384,-4.288 -0.21334,-0.981295 -0.64,-1.898627 -1.28,-2.7520005 l 33.536,0 c 3.4133,4.1e-5 5.99463,0.7040405 7.744,2.1120005 1.74929,1.36537 2.62395,3.989368 2.624,7.872 l 0,6.4 c -5e-5,3.882687 -0.87471,6.528018 -2.624,7.936 -1.70671,1.365348 -4.28804,2.048014 -7.744,2.048 l -16.256,0 0,7.552"
         style=""
         id="path3790" />
    </g>
  </g>
</svg>
